<?xml version="1.0" encoding="utf-8"?>
<!-- Generator: Adobe Illustrator 19.0.0, SVG Export Plug-In . SVG Version: 6.00 Build 0)  -->
<svg version="1.1" xmlns="http://www.w3.org/2000/svg" xmlns:xlink="http://www.w3.org/1999/xlink" x="0px" y="0px"
	 viewBox="0 0 566.9 566.9" style="enable-background:new 0 0 566.9 566.9;" xml:space="preserve">
<style type="text/css">
	.st0{display:none;}
	.st1{display:inline;}
	.st2{font-family:'Franco-Light';}
	.st3{font-size:54.9538px;}
	.st4{font-family:'Franco-Bold';}
	.st5{clip-path:url(#XMLID_132_);fill-rule:evenodd;clip-rule:evenodd;fill:url(#XMLID_133_);}
	.st6{fill-rule:evenodd;clip-rule:evenodd;fill:url(#XMLID_134_);}
	.st7{fill:#99CC66;}
	.st8{fill:#336633;}
	.st9{font-family:'BerlinSansFB-Reg';}
	.st10{font-size:12px;}
	.st11{font-family:'CaviarDreams';}
	.st12{font-size:54.5524px;}
	.st13{letter-spacing:-1;}
	.st14{font-family:'CaviarDreams-Bold';}
	.st15{display:inline;fill:#FFFFFF;}
	.st16{font-family:'Franko-Light';}
	.st17{font-size:20.2481px;}
	.st18{display:inline;fill-rule:evenodd;clip-rule:evenodd;fill:#FFFFFF;}
	.st19{fill:#FFFFFF;}
	.st20{fill-rule:evenodd;clip-rule:evenodd;fill:#FFFFFF;}
</style>
<g id="Triskel_Ambiental" class="st0">
</g>
<g id="Triskel" class="st0">
	<g id="XMLID_1_" class="st1">
		<g id="XMLID_7_">
			<defs>
				<text id="XMLID_3_" transform="matrix(1 0 0 1 67.755 490.9189)"><tspan x="0" y="0" class="st2 st3">TRISKEL </tspan><tspan x="182.9" y="0" class="st4 st3">AMBIENTAL</tspan></text>
			</defs>
			<clipPath id="XMLID_132_">
				<use xlink:href="#XMLID_3_"  style="overflow:visible;"/>
			</clipPath>
			
				<linearGradient id="XMLID_133_" gradientUnits="userSpaceOnUse" x1="53.2364" y1="-16288.7471" x2="504.9655" y2="-16288.7471" gradientTransform="matrix(1 0 0 -1 0 -15816)">
				<stop  offset="0" style="stop-color:#99CC66"/>
				<stop  offset="1" style="stop-color:#336633"/>
			</linearGradient>
			<rect id="XMLID_6_" x="53.2" y="445.5" class="st5" width="451.7" height="54.4"/>
		</g>
		
			<linearGradient id="XMLID_134_" gradientUnits="userSpaceOnUse" x1="151.2628" y1="-16056.6738" x2="415.6665" y2="-16056.6738" gradientTransform="matrix(1 0 0 -1 0 -15816)">
			<stop  offset="0" style="stop-color:#99CC66"/>
			<stop  offset="1" style="stop-color:#336633"/>
		</linearGradient>
		<path id="XMLID_2_" class="st6" d="M199.9,337.1c1.9-0.3,3.6-0.7,5.2-0.7c36.8,0.5,52.8-34.9,40.7-63.3
			c-7.7-18.1-20.8-30.5-42-30.9c-18.8-0.4-34.8,13.3-38,31.8c-0.1,0.8-0.5,1.6-0.8,2.7c-4.1-8.7,2.8-25.4,9.5-32.2
			c22-22.5,58.1-21.8,79.4,3c8.5,10,14.7,22.1,20.7,33.9c8,15.6,13.7,32.4,26,45.6c11.8,12.7,26.2,19.6,43.6,20.2
			c2.3,0.1,4.7,0.5,7.4,0.8C328.5,381,219.9,373,199.9,337.1z M153.2,243.1c1.8-2.4,3.2-4.6,5.1-6.5c6.3-6.2,12-13.4,19.2-18.2
			c17.8-11.8,38.1-10.7,58.2-8.8c17.7,1.6,35.3,5,53.1,0.8c32-7.6,50.9-37.1,42.9-67.5c-3.2-12.2-14.1-23.8-24.5-25.1
			c1.7,1.5,2.8,2.4,3.9,3.3c16.6,13.2,18,40.2,2.9,55.2c-15.9,15.8-44.2,18.6-63,6.2c-20-13.1-26.1-33.2-16.7-55.2
			c1.3-3,2.7-6,4.5-9.7C193.7,122.7,140.4,201.1,153.2,243.1z M373.2,321.9c-24.6,9.7-51.6-8.2-52.1-34.5
			c-0.3-16.6,6.1-30.5,18.5-41.2c22-19,51.7-14.6,67.5,9.7c1.2,1.8,2.5,3.4,3.9,5.3c19.5-37.9-26.6-132.9-65.5-136.1
			c0,0.4-0.1,0.9,0,1.3c0.5,1.2,1,2.5,1.6,3.7c11.2,21.5,10.9,43-1.5,63.7c-9.5,15.8-20.8,30.5-30.7,46c-10,15.6-14,32.6-9.7,51
			c5.8,25,27.5,41.7,51.9,39.8c7.4-0.6,13.8-3.2,18.9-9.3C375.2,321.5,374.1,321.5,373.2,321.9z M202.3,303.6
			c-9.2,3.8-17.4,1.1-24.7-5c-3.7-3.2-7.3-6.5-10.4-9.2c6,22.7,36.3,34.3,55.9,20.3c3.5-2.4,6.9-6.1,8.3-10
			c6.6-17.8-11.3-42.3-30.3-42.3c-8,0-12.8,4.6-15.9,11.2c-3.1,6.6-2.3,13,2.3,18.8c3.3,4.1,7.3,4.7,11.9,2.3
			c7.2-3.8,8.6-10.1,6.4-18.9C219.4,283.2,217.3,297.5,202.3,303.6z M270.6,153c-5.4-5.7-5.7-13.1-3.3-20.1
			c3.8-10.7,12.8-14.8,23.2-16.5c2.4-0.4,4.8-0.6,7.1-0.9c-1.5-2-2.9-2.6-4.3-2.8c-21.3-2.5-41.7,15.1-42.6,36.7
			c-0.4,9.9,5,18.5,14.3,21.9c11.5,4.3,22.9,3.4,33.4-3c13.3-8,14.1-25.6,1.9-33.9c-5.4-3.7-14.3-3.2-17.9,1.1
			c-3.7,4.4-2.5,13.3,2.6,17.6c1.9,1.6,4.6,2.4,8.7,4.5C284.1,158.4,276.4,159.2,270.6,153z M386.4,313.1
			c15.8-17.5,9.8-48.7-11.7-58.5c-4.3-1.9-10.2-2.6-14.7-1.3c-16.1,4.6-26.7,28.4-20.3,43.9c4.6,11.2,18.8,15.1,28.5,7.8
			c6-4.5,7.9-12.7,4.2-17.5c-4.6-5.8-12.7-6.2-18.9-1c-0.8,0.6-1.5,1.2-2.7,2.2c2.6-15.3,16.3-21.9,28.3-14.3
			c6.7,4.2,10.6,10.6,10.1,18.4c-0.4,7.1-2.4,14-3.7,20.8C385.4,313.8,386.1,313.6,386.4,313.1z"/>
		<g id="XMLID_10_">
			<path id="XMLID_15_" class="st7" d="M437.4,197.6c2.4,10,3.9,20.2,4.6,30.6c1.3-20.9-2.1-42.1-9.5-61.7
				C407.3,99.5,338.6,57.6,267.5,65c-82,7.6-147.3,80.4-142.3,163.2c4.5-90.4,82.7-161,173.4-152.1
				C365.2,82,422.1,132.6,437.4,197.6L437.4,197.6z"/>
			<path id="XMLID_14_" class="st8" d="M449.1,228.2c0.5,72.6-47.9,138.8-116.4,162c-15.8,5.5-32.3,8.6-49.2,9.6
				c16.9,1,34.1-0.8,50.5-5.1c81.3-21.2,135.1-100.6,126.3-184c-8.3-89-87-159.6-176.9-154.3C375,61.1,449.4,136,449.1,228.2
				L449.1,228.2z"/>
			<path id="XMLID_13_" class="st7" d="M470.4,228.2c-4.9,99.6-86.5,180.6-186.9,180.3c-100.4,0.3-181.9-80.7-186.9-180.3
				c-4.6,69,35.2,137.5,95.9,170.2c51.3,28.6,115.9,30.9,169.2,6.4C429.5,374.7,475.2,302.3,470.4,228.2L470.4,228.2z"/>
			<path id="XMLID_12_" class="st8" d="M87.9,208.9c7.9-86.3,72.2-158.6,156.3-178.6c12.8-3.1,26-5,39.4-5.9
				c-13.3-0.8-26.8-0.1-40.2,1.9C179,35.9,121.3,79.5,93.2,138.2C66.5,192.5,65.7,258.6,91,313.6c33,73.9,111.4,123.6,192.5,118.4
				C167.2,426.1,76.5,325.8,87.9,208.9L87.9,208.9z"/>
		</g>
	</g>
	<text id="XMLID_4_" transform="matrix(1 0 0 1 116 516)" class="st9 st10">consultoria &amp; projetos</text>
</g>
<g id="Circulo" class="st0">
	<g id="XMLID_26_" class="st1">
		<defs>
			<text id="XMLID_27_" transform="matrix(1 0 0 1 42.5908 525.4803)"><tspan x="0" y="0" class="st11 st12 st13">TRISKEL</tspan><tspan x="166.6" y="0" class="st2 st12 st13"> </tspan><tspan x="176.1" y="0" class="st14 st12 st13">AMBIENTAL</tspan></text>
		</defs>
		<clipPath id="XMLID_135_">
			<use xlink:href="#XMLID_27_"  style="overflow:visible;"/>
		</clipPath>
	</g>
	<text id="XMLID_25_" transform="matrix(1 0 0 1 150.958 553.5623)" class="st15 st16 st17">consultoria &amp; projetos</text>
	<path id="XMLID_18_" class="st18" d="M185.5,358c2.2-0.3,4-0.8,5.9-0.8c41.4,0.5,59.4-39.2,45.7-71.2
		c-8.7-20.4-23.5-34.4-47.2-34.8c-21.1-0.4-39.1,15-42.8,35.8c-0.2,0.9-0.5,1.8-0.9,3c-4.6-9.8,3.2-28.6,10.6-36.2
		c24.7-25.3,65.4-24.5,89.3,3.4c9.6,11.2,16.6,24.9,23.3,38.2c9,17.6,15.4,36.4,29.2,51.3c13.3,14.3,29.5,22,49,22.7
		c2.6,0.1,5.2,0.6,8.3,0.9C330.1,407.4,208,398.4,185.5,358z M132.9,252.3c2.1-2.7,3.7-5.2,5.7-7.3c7.1-7,13.5-15.1,21.6-20.5
		c20-13.2,42.8-12,65.5-9.9c19.9,1.8,39.7,5.6,59.7,0.8c36-8.6,57.3-41.7,48.3-75.9c-3.6-13.8-15.9-26.8-27.6-28.2
		c1.9,1.6,3.1,2.7,4.4,3.7c18.6,14.9,20.3,45.3,3.3,62.1c-17.9,17.8-49.7,20.9-70.9,7c-22.5-14.7-29.4-37.4-18.8-62
		c1.4-3.4,3.1-6.7,5-10.9C178.5,116.8,118.6,205.1,132.9,252.3z M380.4,340.9c-27.6,10.9-58.1-9.2-58.6-38.8
		c-0.3-18.7,6.9-34.3,20.9-46.4c24.7-21.4,58.1-16.4,75.9,10.9c1.3,2,2.8,3.8,4.4,6c21.9-42.6-29.9-149.5-73.6-153.1
		c0,0.5-0.1,1,0,1.4c0.5,1.4,1.1,2.8,1.8,4.1c12.6,24.2,12.3,48.4-1.7,71.6c-10.7,17.8-23.4,34.3-34.5,51.8
		c-11.2,17.5-15.7,36.7-10.9,57.4c6.6,28.1,31,46.9,58.4,44.8c8.3-0.6,15.6-3.6,21.2-10.4C382.6,340.4,381.5,340.5,380.4,340.9z
		 M188.2,320.4c-10.4,4.2-19.6,1.3-27.8-5.7c-4.2-3.5-8.2-7.3-11.7-10.4c6.7,25.5,40.8,38.5,62.9,22.8c3.9-2.8,7.8-6.9,9.4-11.2
		c7.4-20-12.7-47.6-34.1-47.6c-9,0-14.4,5.2-17.9,12.6c-3.5,7.4-2.6,14.6,2.6,21.1c3.7,4.6,8.2,5.3,13.4,2.6
		c8.1-4.3,9.7-11.3,7.2-21.3C207.4,297.4,205,313.5,188.2,320.4z M265,150.9c-6.1-6.4-6.5-14.8-3.7-22.6c4.3-12,14.4-16.7,26.1-18.6
		c2.7-0.4,5.4-0.7,8-1c-1.7-2.3-3.3-3-4.9-3.1c-24-2.8-47,17-47.9,41.3c-0.4,11.2,5.6,20.8,16.1,24.7c13,4.8,25.7,3.8,37.6-3.3
		c14.9-9,15.9-28.7,2.1-38.1c-6.1-4.2-16.1-3.6-20.1,1.2c-4.1,4.9-2.9,14.9,2.9,19.7c2.2,1.8,5.1,2.7,9.8,5.1
		C280.2,156.9,271.5,157.9,265,150.9z M395.3,331.1c17.8-19.7,11-54.8-13.2-65.8c-4.8-2.2-11.5-2.9-16.6-1.4
		c-18.1,5.2-30,31.9-22.8,49.4c5.2,12.6,21.1,17,32.1,8.8c6.7-5,8.9-14.3,4.7-19.7c-5.2-6.6-14.3-7-21.3-1.1
		c-0.8,0.7-1.7,1.4-3.1,2.4c3-17.2,18.3-24.6,31.9-16c7.5,4.7,11.9,11.9,11.4,20.7c-0.5,8-2.7,15.8-4.1,23.4
		C394.1,331.8,394.9,331.6,395.3,331.1z"/>
	<g id="XMLID_9_" class="st1">
		<g id="XMLID_5_">
			<path id="XMLID_17_" class="st19" d="M452.6,201.1c2.7,11.2,4.4,22.8,5.1,34.4c1.4-23.5-2.4-47.3-10.7-69.4
				C418.8,90.7,341.5,43.6,261.5,52c-92.3,8.6-165.7,90.5-160.1,183.6c5.1-101.7,93-181.1,195-171.1C371.4,71,435.5,128,452.6,201.1
				L452.6,201.1z"/>
			<path id="XMLID_16_" class="st19" d="M465.8,235.5c0.6,81.7-53.8,156.2-131,182.3c-17.8,6.2-36.4,9.7-55.3,10.8
				c19,1.1,38.4-0.9,56.8-5.7c91.4-23.9,151.9-113.2,142.1-207c-9.4-100.1-97.9-179.5-199-173.5C382.5,47.5,466.2,131.8,465.8,235.5
				L465.8,235.5z"/>
			<path id="XMLID_11_" class="st19" d="M489.8,235.5c-5.5,112-97.3,203.1-210.2,202.8c-112.9,0.3-204.6-90.7-210.2-202.8
				c-5.1,77.7,39.6,154.6,107.9,191.4c57.7,32.1,130.4,34.8,190.4,7.2C443.7,400.3,495.2,318.9,489.8,235.5L489.8,235.5z"/>
			<path id="XMLID_8_" class="st19" d="M59.5,213.9c8.9-97.1,81.3-178.4,175.8-200.9c14.4-3.5,29.3-5.7,44.3-6.6
				c-15-0.9-30.2-0.2-45.2,2.2C162,19.2,97.1,68.3,65.4,134.3c-30,61.1-30.9,135.4-2.5,197.3c37.1,83.1,125.4,139.1,216.6,133.2
				C148.7,458.2,46.7,345.3,59.5,213.9L59.5,213.9z"/>
		</g>
	</g>
</g>
<g id="Camada_4">
	<g id="XMLID_44_">
		<g id="XMLID_41_" class="st0">
			<path id="XMLID_42_" class="st15" d="M72.9,487.6v40.5h-2.4v-40.5H59.6v-2.4h24.1v2.4H72.9z"/>
			<path id="XMLID_97_" class="st15" d="M97.9,513.2c-0.2,0-0.5,0-0.7,0h-7.3v14.9h-2.4v-42.9h11.3c3.3,0.4,6.1,1.8,8.3,4.1
				c2.7,2.7,4.1,6,4.1,9.9c0,3.9-1.4,7.2-4.1,9.9c-1.9,1.9-4.1,3.1-6.5,3.7l9.9,15.3h-3L97.9,513.2z M89.9,487.6v23.1h7.3
				c3.2,0,5.9-1.1,8.2-3.4c2.3-2.3,3.4-5,3.4-8.2c0-3.2-1.1-5.9-3.4-8.2c-2.3-2.3-5-3.4-8.2-3.4H89.9z"/>
			<path id="XMLID_100_" class="st15" d="M118,485.2v42.9h-2.4v-42.9H118z"/>
			<path id="XMLID_102_" class="st15" d="M135.6,504.4c-3.1-1-5.5-2.4-7.2-4.2s-2.7-3.9-2.7-6.4c0-2.5,0.9-4.6,2.7-6.4
				c1.8-1.8,3.9-2.7,6.4-2.7c2.5,0,4.6,0.9,6.4,2.7c1,0.9,1.7,2,2,3.2l-2.2,0.9c-0.3-0.9-0.8-1.7-1.6-2.4c-1.3-1.3-2.9-1.9-4.7-1.9
				c-1.8,0-3.4,0.6-4.7,1.9c-1.3,1.3-2,2.9-2,4.7c0,1.8,0.7,3.4,2,4.7c1.2,1.2,2.9,2.3,5,3.3c3.4,1.1,6.3,2.8,8.7,5.2
				c2.5,2.5,3.7,5.5,3.7,9c0,3.5-1.2,6.5-3.7,9c-2.5,2.5-5.5,3.7-9,3.7s-6.5-1.3-9-3.8c-2-2-3.2-4.3-3.6-6.9l2.3-0.8
				c0.3,2.3,1.2,4.4,3,6.1c2,2,4.5,3,7.3,3c2.9,0,5.3-1,7.3-3s3-4.5,3-7.3c0-2.8-1-5.3-3-7.3C140.4,506.8,138.2,505.4,135.6,504.4z"
				/>
			<path id="XMLID_104_" class="st15" d="M153.7,507.3v20.8h-2.4v-42.9h2.4v18.3l13.7-18.3h3.1l-12.9,17.3l16.6,25.6h-3L156,504.4
				L153.7,507.3z"/>
			<path id="XMLID_106_" class="st15" d="M200.5,485.2v2.4h-19v17.8h19v2.4h-19v17.8h19v2.4H179v-42.9H200.5z"/>
			<path id="XMLID_108_" class="st15" d="M206.2,528.1v-42.9h2.4v40.5h16.6v2.4H206.2z"/>
			<path id="XMLID_110_" class="st15" d="M255.6,485.2l15.6,42.9h-5.9l-5.5-15.2h-11.4l-5.5,15.2H237l15.6-42.9H255.6z M257.8,507.4
				l-3.7-10.1l-3.6,10.1H257.8z"/>
			<path id="XMLID_113_" class="st15" d="M281.3,485.2l13.9,24.1l13.9-24.1h5.1v42.9h-5.6v-31l-13.4,23.2l-13.4-23.2v31h-5.6v-42.9
				H281.3z"/>
			<path id="XMLID_115_" class="st15" d="M330.5,485.2c2.5,0,4.6,0.9,6.4,2.6c1.8,1.8,2.7,3.9,2.7,6.4c0,2.6-1.3,4.1-3.9,4.7
				c1.9,0.3,4,1.6,6.3,4s3.6,5.7,3.6,9.9c0,4.2-1.5,7.8-4.4,10.9c-2.8,2.9-5.6,4.3-8.3,4.4v0.1h-11v-42.9H330.5z M327.4,490.8v6.8
				h3.6c0.8-0.1,1.5-0.4,2.1-0.9c0.6-0.6,1-1.4,1-2.4c0-1-0.3-1.8-1-2.5c-0.7-0.7-1.5-1-2.6-1H327.4z M327.4,503.3v19.3h5.4v-0.1
				c1.1-0.1,2.6-1,4.3-2.8c1.9-1.9,2.8-4.2,2.8-6.9c0-2.6-0.9-4.9-2.8-6.7c-1.9-1.9-4.1-2.8-6.7-2.8H327.4z"/>
			<path id="XMLID_119_" class="st15" d="M356.5,485.2v42.9h-5.6v-42.9H356.5z"/>
			<path id="XMLID_121_" class="st15" d="M386.6,485.2v5.6H369v13.1h17.6v5.6H369v13.1h17.6v5.6h-23.1v-42.9H386.6z"/>
			<path id="XMLID_123_" class="st15" d="M392.3,485.2h5.1l17.7,30.6v-30.6h5.6v42.9h-4.9l-17.9-31v31h-5.6V485.2z"/>
			<path id="XMLID_125_" class="st15" d="M439.9,490.8v37.4h-5.6v-37.4h-10v-5.6H450v5.6H439.9z"/>
			<path id="XMLID_127_" class="st15" d="M467.6,485.2l15.6,42.9h-5.9l-5.5-15.2h-11.4l-5.5,15.2H449l15.6-42.9H467.6z M469.8,507.4
				l-3.7-10.1l-3.6,10.1H469.8z"/>
			<path id="XMLID_130_" class="st15" d="M487,528.1v-42.9h5.6v37.3h15.3v5.6H487z"/>
		</g>
		<g id="XMLID_45_" class="st0">
			<path id="XMLID_46_" class="st15" d="M177.7,552.6c0,1.3-0.5,2.3-1.2,3c-0.8,0.7-1.8,1-3.2,1c-1.4,0-2.5-0.4-3.3-1.3
				c-0.8-0.9-1.3-2.1-1.3-3.6v-2.1c0-1.5,0.4-2.7,1.3-3.6s2-1.3,3.3-1.3s2.5,0.3,3.2,1c0.8,0.7,1.2,1.6,1.2,2.9h-1.2
				c0-1-0.3-1.7-0.9-2.2s-1.3-0.7-2.4-0.7c-1,0-1.9,0.4-2.5,1.1s-0.9,1.7-0.9,2.8v2.1c0,1.2,0.3,2.1,0.9,2.8s1.4,1.1,2.5,1.1
				c1.1,0,1.9-0.2,2.4-0.7c0.5-0.5,0.8-1.2,0.9-2.2H177.7z"/>
			<path id="XMLID_48_" class="st15" d="M189.7,551.6c0,1.5-0.4,2.7-1.3,3.6c-0.9,0.9-2,1.3-3.5,1.3c-1.5,0-2.6-0.4-3.5-1.3
				c-0.9-0.9-1.3-2.1-1.3-3.6v-2.1c0-1.5,0.4-2.7,1.3-3.6s2-1.3,3.5-1.3c1.5,0,2.6,0.4,3.5,1.3c0.9,0.9,1.3,2.1,1.3,3.6V551.6z
				 M188.6,549.6c0-1.3-0.3-2.2-1-2.9s-1.5-1-2.7-1c-1.1,0-2,0.3-2.6,1c-0.6,0.7-0.9,1.6-0.9,2.9v2.1c0,1.3,0.3,2.3,0.9,2.9
				c0.6,0.7,1.5,1,2.7,1c1.1,0,2-0.3,2.7-1c0.6-0.7,0.9-1.6,0.9-2.9V549.6z"/>
			<path id="XMLID_51_" class="st15" d="M202.2,556.4H201l-7-9.7l0,0v9.7h-1.2v-11.6h1.2l7,9.7l0,0v-9.7h1.2V556.4z"/>
			<path id="XMLID_53_" class="st15" d="M212.8,553.5c0-0.6-0.2-1-0.7-1.4c-0.5-0.3-1.3-0.7-2.6-1c-1.5-0.4-2.5-0.8-3.2-1.3
				c-0.6-0.5-1-1.2-1-2.1c0-0.9,0.4-1.7,1.1-2.2c0.8-0.5,1.8-0.8,3.1-0.8c1.4,0,2.4,0.3,3.1,0.9c0.7,0.6,1.1,1.5,1.1,2.6h-1.2
				c0-0.8-0.3-1.4-0.8-1.8c-0.5-0.5-1.3-0.7-2.3-0.7c-1,0-1.8,0.2-2.3,0.6c-0.5,0.4-0.8,0.9-0.8,1.5c0,0.6,0.2,1.1,0.6,1.4
				s1.3,0.7,2.7,1c1.5,0.4,2.5,0.8,3.2,1.3c0.7,0.5,1,1.2,1,2.1c0,1-0.4,1.7-1.2,2.3c-0.8,0.5-1.9,0.8-3.3,0.8
				c-1.3,0-2.4-0.3-3.2-0.8c-0.9-0.5-1.3-1.4-1.3-2.7h1.2c0,0.9,0.3,1.5,1,1.9c0.6,0.4,1.4,0.6,2.4,0.6c1.1,0,1.9-0.2,2.5-0.6
				C212.5,554.6,212.8,554.1,212.8,553.5z"/>
			<path id="XMLID_55_" class="st15" d="M226.2,544.8v7.7c0,1.3-0.4,2.3-1.3,3c-0.9,0.7-2,1.1-3.5,1.1c-1.4,0-2.6-0.4-3.5-1.1
				c-0.9-0.7-1.3-1.7-1.3-3v-7.7h1.2v7.7c0,1,0.3,1.7,1,2.3s1.5,0.8,2.6,0.8c1.1,0,1.9-0.3,2.6-0.8c0.7-0.5,1-1.3,1-2.3v-7.7H226.2z
				"/>
			<path id="XMLID_57_" class="st15" d="M230.6,555.4h5.8v1h-6.9v-11.6h1.2V555.4z"/>
			<path id="XMLID_59_" class="st15" d="M246.6,545.8h-3.9v10.6h-1.2v-10.6h-3.8v-1h8.9V545.8z"/>
			<path id="XMLID_61_" class="st15" d="M258.3,551.6c0,1.5-0.4,2.7-1.3,3.6c-0.9,0.9-2,1.3-3.5,1.3c-1.5,0-2.6-0.4-3.5-1.3
				c-0.9-0.9-1.3-2.1-1.3-3.6v-2.1c0-1.5,0.4-2.7,1.3-3.6c0.9-0.9,2-1.3,3.5-1.3s2.6,0.4,3.5,1.3s1.3,2.1,1.3,3.6V551.6z
				 M257.1,549.6c0-1.3-0.3-2.2-1-2.9s-1.5-1-2.7-1c-1.1,0-2,0.3-2.6,1s-0.9,1.6-0.9,2.9v2.1c0,1.3,0.3,2.3,0.9,2.9
				c0.6,0.7,1.5,1,2.7,1c1.1,0,2-0.3,2.7-1c0.6-0.7,0.9-1.6,0.9-2.9V549.6z"/>
			<path id="XMLID_64_" class="st15" d="M262.5,551.3v5.1h-1.2v-11.6h4.4c1.3,0,2.3,0.3,3,0.8c0.7,0.6,1,1.4,1,2.4
				c0,0.7-0.2,1.2-0.5,1.7c-0.3,0.5-0.8,0.8-1.4,1v0c0.7,0.2,1.2,0.5,1.5,1s0.4,1,0.4,1.7v1.1c0,0.4,0,0.7,0.1,1
				c0,0.3,0.1,0.5,0.3,0.7v0.2h-1.2c-0.1-0.2-0.2-0.4-0.2-0.8c0-0.3,0-0.7,0-1v-1.1c0-0.7-0.2-1.2-0.6-1.6c-0.4-0.4-1-0.6-1.9-0.6
				H262.5z M262.5,550.3h3.2c1,0,1.7-0.2,2.2-0.5c0.4-0.4,0.7-0.9,0.7-1.7s-0.2-1.3-0.7-1.7c-0.4-0.4-1.2-0.6-2.2-0.6h-3.2V550.3z"
				/>
			<path id="XMLID_67_" class="st15" d="M274.1,556.4H273v-11.6h1.2V556.4z"/>
			<path id="XMLID_69_" class="st15" d="M284.5,553.4h-5.7l-1.2,3h-1.2l4.7-11.6h1.2l4.7,11.6h-1.2L284.5,553.4z M279.2,552.4h4.9
				l-2.5-6.2L279.2,552.4z"/>
			<path id="XMLID_72_" class="st15" d="M296.4,548.5c-0.6-0.7-1-1.3-1.2-1.8c-0.3-0.5-0.4-1.1-0.4-1.7c0-1.1,0.3-1.9,0.9-2.4
				c0.6-0.6,1.4-0.8,2.4-0.8c1,0,1.7,0.3,2.3,0.8c0.6,0.5,0.8,1.2,0.8,2c0,0.6-0.1,1.1-0.4,1.5c-0.3,0.4-0.7,0.8-1.3,1.3l-1.6,1.2
				l4.1,4.8c0.3-0.5,0.6-1,0.8-1.6c0.2-0.6,0.3-1.2,0.3-1.9h1.1c0,0.9-0.1,1.7-0.4,2.3c-0.2,0.7-0.6,1.3-1.1,1.9l1.9,2.2h-1.4
				l-1.2-1.4c-0.6,0.5-1.2,0.9-1.9,1.2c-0.7,0.3-1.4,0.4-2.2,0.4c-1.4,0-2.5-0.3-3.3-1c-0.8-0.7-1.2-1.7-1.2-2.9
				c0-0.8,0.2-1.5,0.7-2.2c0.5-0.6,1.2-1.3,2.1-2L296.4,548.5z M297.9,555.6c0.6,0,1.2-0.1,1.8-0.3s1.1-0.6,1.6-1l-4.1-4.8
				c0,0-0.1-0.1-0.1-0.1c0,0,0,0,0-0.1l-0.5,0.4c-0.8,0.6-1.3,1.2-1.6,1.7c-0.3,0.5-0.4,1-0.4,1.4c0,0.8,0.3,1.5,0.8,2.1
				C296,555.3,296.8,555.6,297.9,555.6z M296,545c0,0.4,0.1,0.9,0.3,1.4c0.2,0.5,0.5,1,1,1.5l1.8-1.3c0.4-0.3,0.7-0.6,0.8-0.9
				c0.2-0.3,0.2-0.7,0.2-1.1c0-0.5-0.2-1-0.5-1.3c-0.3-0.3-0.8-0.5-1.5-0.5c-0.7,0-1.2,0.2-1.6,0.6S296,544.3,296,545z"/>
			<path id="XMLID_76_" class="st15" d="M312.9,552.1v4.3h-1.2v-11.6h4.4c1.3,0,2.3,0.3,3,1c0.7,0.7,1.1,1.5,1.1,2.6s-0.4,2-1.1,2.6
				c-0.7,0.7-1.7,1-3,1H312.9z M312.9,551h3.2c1,0,1.7-0.2,2.2-0.7c0.5-0.5,0.7-1.1,0.7-1.9c0-0.8-0.2-1.4-0.7-1.9
				c-0.5-0.5-1.2-0.8-2.2-0.8h-3.2V551z"/>
			<path id="XMLID_79_" class="st15" d="M324,551.3v5.1h-1.2v-11.6h4.4c1.3,0,2.3,0.3,3,0.8c0.7,0.6,1,1.4,1,2.4
				c0,0.7-0.2,1.2-0.5,1.7c-0.3,0.5-0.8,0.8-1.4,1v0c0.7,0.2,1.2,0.5,1.5,1s0.4,1,0.4,1.7v1.1c0,0.4,0,0.7,0.1,1
				c0,0.3,0.1,0.5,0.3,0.7v0.2h-1.2c-0.1-0.2-0.2-0.4-0.2-0.8c0-0.3,0-0.7,0-1v-1.1c0-0.7-0.2-1.2-0.6-1.6c-0.4-0.4-1-0.6-1.9-0.6
				H324z M324,550.3h3.2c1,0,1.7-0.2,2.2-0.5c0.4-0.4,0.7-0.9,0.7-1.7s-0.2-1.3-0.7-1.7c-0.4-0.4-1.2-0.6-2.2-0.6H324V550.3z"/>
			<path id="XMLID_82_" class="st15" d="M343.6,551.6c0,1.5-0.4,2.7-1.3,3.6c-0.9,0.9-2,1.3-3.5,1.3c-1.5,0-2.6-0.4-3.5-1.3
				c-0.9-0.9-1.3-2.1-1.3-3.6v-2.1c0-1.5,0.4-2.7,1.3-3.6c0.9-0.9,2-1.3,3.5-1.3s2.6,0.4,3.5,1.3s1.3,2.1,1.3,3.6V551.6z
				 M342.5,549.6c0-1.3-0.3-2.2-1-2.9s-1.5-1-2.7-1c-1.1,0-2,0.3-2.6,1s-0.9,1.6-0.9,2.9v2.1c0,1.3,0.3,2.3,0.9,2.9
				c0.6,0.7,1.5,1,2.7,1c1.1,0,2-0.3,2.7-1c0.6-0.7,0.9-1.6,0.9-2.9V549.6z"/>
			<path id="XMLID_85_" class="st15" d="M352.3,544.8h1.2v8.2c0,1.1-0.3,2-1,2.6s-1.6,1-2.7,1c-1.2,0-2.2-0.3-2.9-0.9
				c-0.7-0.6-1-1.4-1-2.6h1.2c0,0.8,0.2,1.5,0.7,1.8c0.5,0.4,1.1,0.6,2.1,0.6c0.7,0,1.4-0.2,1.8-0.7c0.5-0.5,0.7-1.1,0.7-1.9V544.8z
				"/>
			<path id="XMLID_87_" class="st15" d="M363.8,550.9H358v4.5h6.7v1h-7.9v-11.6h7.9v1H358v4.1h5.8V550.9z"/>
			<path id="XMLID_89_" class="st15" d="M375.3,545.8h-3.9v10.6h-1.2v-10.6h-3.8v-1h8.9V545.8z"/>
			<path id="XMLID_91_" class="st15" d="M387,551.6c0,1.5-0.4,2.7-1.3,3.6c-0.9,0.9-2,1.3-3.5,1.3c-1.5,0-2.6-0.4-3.5-1.3
				c-0.9-0.9-1.3-2.1-1.3-3.6v-2.1c0-1.5,0.4-2.7,1.3-3.6c0.9-0.9,2-1.3,3.5-1.3s2.6,0.4,3.5,1.3s1.3,2.1,1.3,3.6V551.6z
				 M385.8,549.6c0-1.3-0.3-2.2-1-2.9s-1.5-1-2.7-1c-1.1,0-2,0.3-2.6,1s-0.9,1.6-0.9,2.9v2.1c0,1.3,0.3,2.3,0.9,2.9
				c0.6,0.7,1.5,1,2.7,1c1.1,0,2-0.3,2.7-1c0.6-0.7,0.9-1.6,0.9-2.9V549.6z"/>
			<path id="XMLID_94_" class="st15" d="M397.2,553.5c0-0.6-0.2-1-0.7-1.4c-0.5-0.3-1.3-0.7-2.6-1c-1.5-0.4-2.5-0.8-3.2-1.3
				c-0.6-0.5-1-1.2-1-2.1c0-0.9,0.4-1.7,1.1-2.2c0.8-0.5,1.8-0.8,3.1-0.8c1.4,0,2.4,0.3,3.1,0.9c0.7,0.6,1.1,1.5,1.1,2.6h-1.2
				c0-0.8-0.3-1.4-0.8-1.8c-0.5-0.5-1.3-0.7-2.3-0.7c-1,0-1.8,0.2-2.3,0.6c-0.5,0.4-0.8,0.9-0.8,1.5c0,0.6,0.2,1.1,0.6,1.4
				c0.4,0.3,1.3,0.7,2.7,1c1.5,0.4,2.5,0.8,3.2,1.3c0.7,0.5,1,1.2,1,2.1c0,1-0.4,1.7-1.2,2.3c-0.8,0.5-1.9,0.8-3.3,0.8
				c-1.3,0-2.4-0.3-3.2-0.8c-0.9-0.5-1.3-1.4-1.3-2.7h1.2c0,0.9,0.3,1.5,1,1.9c0.6,0.4,1.4,0.6,2.4,0.6c1.1,0,1.9-0.2,2.5-0.6
				C396.9,554.6,397.2,554.1,397.2,553.5z"/>
		</g>
		<path id="XMLID_34_" class="st20" d="M202.2,359.5c2.2-0.3,4-0.8,5.9-0.8c41.7,0.5,59.8-39.5,46.1-71.7
			c-8.7-20.5-23.6-34.6-47.6-35c-21.3-0.4-39.4,15.1-43.1,36.1c-0.2,0.9-0.5,1.8-0.9,3c-4.6-9.9,3.2-28.8,10.7-36.5
			c24.9-25.5,65.8-24.7,89.9,3.4c9.6,11.3,16.7,25.1,23.5,38.4c9,17.7,15.5,36.7,29.4,51.6c13.4,14.4,29.7,22.2,49.4,22.9
			c2.6,0.1,5.3,0.6,8.4,0.9C347.8,409.2,224.8,400.2,202.2,359.5z M149.3,253.1c2.1-2.7,3.7-5.2,5.8-7.3c7.1-7,13.5-15.2,21.8-20.6
			c20.2-13.3,43.1-12.1,65.9-10c20,1.8,39.9,5.7,60.1,0.9c36.3-8.6,57.7-42,48.6-76.4c-3.6-13.9-16-27-27.8-28.4
			c1.9,1.6,3.1,2.7,4.4,3.8c18.8,15,20.4,45.6,3.3,62.5c-18,17.9-50,21.1-71.4,7.1c-22.6-14.8-29.6-37.6-19-62.5
			c1.5-3.4,3.1-6.8,5.1-11C195.2,116.7,134.8,205.5,149.3,253.1z M398.5,342.2c-27.8,11-58.5-9.3-59-39.1
			c-0.3-18.8,6.9-34.5,21-46.7c24.9-21.5,58.5-16.5,76.5,11c1.3,2,2.8,3.9,4.4,6c22.1-42.9-30.1-150.5-74.1-154.2c0,0.5-0.1,1,0,1.5
			c0.5,1.4,1.1,2.8,1.8,4.1c12.7,24.4,12.4,48.8-1.7,72.1c-10.8,17.9-23.5,34.5-34.8,52.1c-11.3,17.7-15.8,36.9-11,57.8
			c6.6,28.3,31.2,47.2,58.8,45.1c8.3-0.6,15.7-3.7,21.4-10.5C400.7,341.8,399.5,341.8,398.5,342.2z M204.9,321.6
			c-10.5,4.3-19.7,1.3-28-5.7c-4.2-3.6-8.3-7.3-11.8-10.4c6.8,25.7,41.1,38.8,63.3,23c3.9-2.8,7.8-6.9,9.4-11.3
			c7.4-20.2-12.8-47.9-34.4-47.9c-9,0-14.5,5.2-18,12.7c-3.5,7.5-2.6,14.7,2.6,21.2c3.7,4.6,8.3,5.3,13.5,2.6
			c8.2-4.3,9.8-11.4,7.2-21.5C224.3,298.5,221.9,314.7,204.9,321.6z M282.2,151c-6.2-6.5-6.5-14.9-3.7-22.8
			c4.3-12.1,14.5-16.8,26.3-18.7c2.7-0.4,5.4-0.7,8.1-1c-1.7-2.3-3.3-3-4.9-3.2c-24.2-2.8-47.3,17.1-48.2,41.5
			c-0.4,11.2,5.7,20.9,16.2,24.9c13.1,4.8,25.9,3.8,37.8-3.4c15.1-9.1,16-28.9,2.2-38.4c-6.2-4.2-16.2-3.6-20.3,1.2
			c-4.1,4.9-2.9,15,2.9,19.9c2.2,1.8,5.2,2.7,9.8,5.1C297.6,157,288.8,158,282.2,151z M413.5,332.4c17.9-19.8,11.1-55.2-13.3-66.2
			c-4.9-2.2-11.6-2.9-16.7-1.4c-18.2,5.3-30.2,32.2-23,49.7c5.2,12.7,21.3,17.1,32.3,8.9c6.7-5.1,9-14.4,4.7-19.8
			c-5.2-6.6-14.4-7.1-21.4-1.1c-0.8,0.7-1.8,1.4-3.1,2.4c3-17.3,18.4-24.8,32.1-16.1c7.6,4.8,12,12,11.4,20.9
			c-0.5,8-2.7,15.9-4.2,23.5C412.3,333.1,413,332.9,413.5,332.4z"/>
		<g id="XMLID_28_">
			<g id="XMLID_29_">
				<path id="XMLID_33_" class="st19" d="M471.1,201.5c2.8,11.3,4.4,22.9,5.2,34.7c1.4-23.6-2.4-47.7-10.7-69.9
					c-28.4-76-106.3-123.4-186.9-115c-92.9,8.6-166.8,91.1-161.2,184.8c5.1-102.4,93.7-182.3,196.4-172.3
					C389.3,70.5,453.9,127.9,471.1,201.5L471.1,201.5z"/>
				<path id="XMLID_32_" class="st19" d="M484.5,236.2c0.6,82.2-54.2,157.2-131.9,183.5c-17.9,6.2-36.6,9.8-55.7,10.9
					c19.1,1.1,38.6-0.9,57.2-5.8c92-24.1,153-114,143.1-208.4c-9.4-100.8-98.6-180.7-200.3-174.7
					C400.5,46.9,484.8,131.7,484.5,236.2L484.5,236.2z"/>
				<path id="XMLID_31_" class="st19" d="M508.5,236.2C503,349,410.6,440.7,296.9,440.4c-113.7,0.3-206-91.4-211.6-204.2
					c-5.2,78.2,39.9,155.7,108.6,192.8c58.1,32.4,131.3,35,191.7,7.2C462.2,402,514,320.1,508.5,236.2L508.5,236.2z"/>
				<path id="XMLID_30_" class="st19" d="M75.3,214.4c8.9-97.8,81.8-179.6,177-202.3c14.5-3.5,29.5-5.7,44.6-6.6
					c-15.1-0.9-30.4-0.2-45.5,2.2C178.5,18.4,113.2,67.8,81.3,134.2c-30.2,61.5-31.1,136.4-2.5,198.6
					c37.4,83.7,126.2,140,218.1,134.1C165.1,460.3,62.5,346.6,75.3,214.4L75.3,214.4z"/>
			</g>
		</g>
	</g>
</g>
</svg>
