<?xml version="1.0" encoding="utf-8"?>
<!-- Generator: Adobe Illustrator 19.0.0, SVG Export Plug-In . SVG Version: 6.00 Build 0)  -->
<svg version="1.1" xmlns="http://www.w3.org/2000/svg" xmlns:xlink="http://www.w3.org/1999/xlink" x="0px" y="0px"
	 viewBox="0 0 566.9 566.9" style="enable-background:new 0 0 566.9 566.9;" xml:space="preserve">
<style type="text/css">
	.st0{display:none;}
	.st1{display:inline;}
	.st2{fill-rule:evenodd;clip-rule:evenodd;fill:url(#XMLID_93_);}
	.st3{fill:#99CC66;}
	.st4{fill:#336633;}
	.st5{clip-path:url(#XMLID_94_);fill-rule:evenodd;clip-rule:evenodd;fill:url(#XMLID_95_);}
	.st6{fill:url(#XMLID_96_);}
	.st7{fill-rule:evenodd;clip-rule:evenodd;fill:#FFFFFF;}
	.st8{fill:#FFFFFF;}
	.st9{display:inline;fill:url(#XMLID_98_);}
</style>
<g id="Background" class="st0">
	<rect id="Background_1_" y="0" class="st1" width="566.9" height="566.9"/>
</g>
<g id="Guias" class="st0">
</g>
<g id="LogoCor">
	<g id="img_2_">
		<linearGradient id="XMLID_93_" gradientUnits="userSpaceOnUse" x1="160.2472" y1="233.0346" x2="427.697" y2="233.0346">
			<stop  offset="0" style="stop-color:#99CC66"/>
			<stop  offset="1" style="stop-color:#336633"/>
		</linearGradient>
		<path id="XMLID_10_" class="st2" d="M209.5,332.9c1.9-0.3,3.6-0.7,5.3-0.7c37.2,0.5,53.4-36.1,41.1-65.5
			c-7.8-18.8-21.1-31.6-42.5-32c-19-0.4-35.2,13.8-38.5,32.9c-0.1,0.8-0.5,1.6-0.8,2.8c-4.1-9,2.9-26.3,9.6-33.3
			c22.2-23.3,58.8-22.6,80.3,3.1c8.6,10.3,14.9,22.9,21,35.1c8.1,16.2,13.8,33.5,26.3,47.2c12,13.1,26.5,20.3,44.1,20.9
			c2.4,0.1,4.7,0.5,7.5,0.9C339.5,378.3,229.7,370,209.5,332.9z M162.2,235.6c1.9-2.5,3.3-4.8,5.1-6.7c6.3-6.4,12.1-13.9,19.4-18.8
			c18-12.2,38.5-11,58.9-9.1c17.9,1.7,35.7,5.2,53.7,0.8c32.4-7.9,51.5-38.4,43.4-69.9c-3.3-12.7-14.3-24.6-24.8-26
			c1.7,1.5,2.8,2.5,3.9,3.4c16.8,13.7,18.2,41.7,3,57.1c-16.1,16.4-44.7,19.3-63.8,6.5c-20.2-13.5-26.4-34.4-16.9-57.1
			c1.3-3.1,2.8-6.2,4.5-10C203.2,110.9,149.3,192.1,162.2,235.6z M384.8,317.1c-24.8,10-52.2-8.5-52.7-35.7
			c-0.3-17.2,6.2-31.5,18.8-42.7c22.2-19.7,52.3-15.1,68.3,10c1.2,1.8,2.5,3.5,4,5.5c19.7-39.2-26.9-137.6-66.2-140.9
			c0,0.4-0.1,0.9,0,1.3c0.5,1.3,1,2.6,1.6,3.8c11.4,22.3,11.1,44.6-1.5,65.9c-9.6,16.3-21,31.6-31.1,47.7
			c-10.1,16.1-14.1,33.7-9.8,52.8c5.9,25.9,27.8,43.1,52.5,41.2c7.4-0.6,14-3.3,19.1-9.6C386.7,316.7,385.7,316.7,384.8,317.1z
			 M211.9,298.2c-9.3,3.9-17.6,1.2-25-5.2c-3.8-3.3-7.4-6.7-10.5-9.5c6.1,23.5,36.7,35.5,56.6,21c3.5-2.5,7-6.3,8.4-10.3
			c6.6-18.4-11.4-43.8-30.7-43.8c-8.1,0-12.9,4.7-16.1,11.6c-3.1,6.8-2.3,13.5,2.3,19.4c3.3,4.2,7.4,4.9,12,2.4
			c7.3-3.9,8.7-10.4,6.4-19.6C229.2,277.1,227,291.9,211.9,298.2z M280.9,142.3c-5.5-5.9-5.8-13.6-3.3-20.8
			c3.8-11,12.9-15.3,23.5-17.1c2.4-0.4,4.8-0.6,7.2-0.9c-1.5-2.1-2.9-2.7-4.4-2.9c-21.6-2.6-42.2,15.6-43.1,38
			c-0.4,10.3,5.1,19.1,14.5,22.7c11.7,4.4,23.1,3.5,33.8-3.1c13.4-8.3,14.3-26.5,1.9-35.1c-5.5-3.9-14.5-3.3-18.1,1.1
			c-3.7,4.5-2.6,13.7,2.6,18.2c1.9,1.7,4.6,2.5,8.8,4.7C294.6,147.8,286.8,148.7,280.9,142.3z M398.1,308
			c16-18.1,9.9-50.4-11.9-60.5c-4.3-2-10.4-2.6-14.9-1.3c-16.3,4.8-27,29.4-20.5,45.4c4.7,11.6,19,15.7,28.8,8.1
			c6-4.6,8-13.2,4.2-18.1c-4.6-6-12.8-6.5-19.1-1c-0.8,0.7-1.6,1.3-2.8,2.2c2.7-15.8,16.4-22.7,28.7-14.8c6.7,4.4,10.7,11,10.2,19.1
			c-0.4,7.3-2.5,14.5-3.7,21.5C397.1,308.7,397.7,308.5,398.1,308z"/>
		<g id="XMLID_3_">
			<path id="XMLID_7_" class="st3" d="M449.8,189.1c2.5,10.1,4,20.5,4.6,31c1.3-21.1-2.1-42.6-9.6-62.4
				C419.4,89.9,349.9,47.5,278,55c-83,7.7-149,81.3-144,165.1c4.5-91.4,83.7-162.8,175.4-153.8C376.8,72.1,434.4,123.4,449.8,189.1
				L449.8,189.1z"/>
			<path id="XMLID_6_" class="st4" d="M463.6,222.2c0.5,75.3-48.9,144.7-119,169.7c-16.2,5.9-33.1,9.4-50.3,10.7
				c17.3,0.8,34.9-1.3,51.7-6C429.1,373.4,484,290.3,475.1,204c-8.5-92.2-89-164.3-180.8-157.5C387.8,49.8,463.9,126.5,463.6,222.2
				L463.6,222.2z"/>
			<path id="XMLID_4_" class="st3" d="M483.2,228.2c-5,100.7-87.5,182.7-189,182.3c-101.5,0.3-184-81.6-189-182.3
				c-4.6,69.8,35.6,139,97,172.1c51.9,28.9,117.3,31.3,171.2,6.4C441.8,376.3,488.1,303.1,483.2,228.2L483.2,228.2z"/>
			<path id="XMLID_5_" class="st4" d="M96.3,204c8-89.4,73.1-164.2,158.1-184.9c13-3.2,26.3-5.2,39.8-6.1c-13.5-0.8-27.1-0.1-40.6,2
				C188.5,24.8,130.1,70,101.7,130.7c-27,56.2-27.8,124.7-2.2,181.6c33.4,76.5,112.7,128,194.7,122.6
				C176.5,428.8,84.8,324.9,96.3,204L96.3,204z"/>
		</g>
	</g>
	<g id="Texto_4_">
		<g id="XMLID_357_">
			<path id="XMLID_416_" class="st4" d="M110.7,541.6c-0.1,2.1-0.7,3.7-2,4.8c-1.3,1.1-3,1.6-5.2,1.6c-2.3,0-4.1-0.7-5.4-2.2
				c-1.4-1.5-2.1-3.4-2.1-5.8v-3.4c0-2.4,0.7-4.4,2.1-5.8c1.4-1.5,3.2-2.2,5.4-2.2c2.3,0,4,0.5,5.3,1.6c1.3,1.1,1.9,2.7,2,4.8h-1.9
				c-0.1-1.6-0.6-2.8-1.4-3.6c-0.9-0.8-2.2-1.2-3.9-1.2c-1.7,0-3,0.6-4,1.8s-1.5,2.7-1.5,4.6v3.4c0,1.9,0.5,3.5,1.5,4.6
				c1,1.2,2.4,1.8,4,1.8c1.7,0,3-0.4,3.9-1.1s1.3-2,1.4-3.6H110.7z"/>
			<path id="XMLID_413_" class="st4" d="M130.3,540c0,2.5-0.7,4.4-2.1,5.9c-1.4,1.4-3.3,2.2-5.7,2.2c-2.4,0-4.3-0.7-5.7-2.2
				c-1.4-1.4-2.1-3.4-2.1-5.9v-3.4c0-2.5,0.7-4.4,2.1-5.9c1.4-1.4,3.3-2.2,5.7-2.2c2.4,0,4.3,0.7,5.7,2.2c1.4,1.4,2.1,3.4,2.1,5.9
				V540z M128.3,536.6c0-2.1-0.5-3.7-1.5-4.7c-1-1.1-2.5-1.6-4.3-1.6c-1.8,0-3.3,0.5-4.3,1.6c-1,1.1-1.5,2.7-1.5,4.7v3.4
				c0,2.1,0.5,3.7,1.5,4.8c1,1.1,2.5,1.6,4.3,1.6c1.9,0,3.3-0.5,4.3-1.6c1-1.1,1.5-2.7,1.5-4.8V536.6z"/>
			<path id="XMLID_411_" class="st4" d="M150.6,547.8h-1.9l-11.4-15.9l0,0v15.8h-1.9v-18.9h1.9l11.4,15.8l0,0v-15.8h1.9V547.8z"/>
			<path id="XMLID_409_" class="st4" d="M167.9,543c0-0.9-0.4-1.7-1.1-2.2c-0.8-0.5-2.2-1.1-4.3-1.7c-2.4-0.6-4.1-1.3-5.1-2.1
				s-1.6-1.9-1.6-3.5c0-1.5,0.6-2.8,1.8-3.7c1.2-0.9,2.9-1.3,5.1-1.3c2.2,0,3.9,0.5,5.1,1.5c1.2,1,1.8,2.4,1.8,4.3h-1.9
				c0-1.2-0.4-2.2-1.3-3c-0.9-0.7-2.1-1.1-3.7-1.1c-1.7,0-2.9,0.3-3.7,0.9c-0.8,0.6-1.2,1.4-1.2,2.4c0,1,0.3,1.7,1,2.3
				c0.7,0.5,2.1,1.1,4.4,1.6c2.4,0.6,4.1,1.3,5.2,2.1c1.1,0.8,1.6,1.9,1.6,3.4c0,1.6-0.7,2.8-2,3.7c-1.3,0.9-3.1,1.3-5.4,1.3
				c-2.1,0-3.9-0.4-5.3-1.3s-2.1-2.4-2.1-4.4h1.9c0,1.5,0.5,2.5,1.6,3.1c1,0.6,2.3,1,3.9,1c1.7,0,3.1-0.3,4-0.9
				C167.4,544.8,167.9,544,167.9,543z"/>
			<path id="XMLID_407_" class="st4" d="M189.7,528.9v12.5c0,2.1-0.7,3.8-2.1,4.9c-1.4,1.2-3.3,1.7-5.6,1.7c-2.3,0-4.2-0.6-5.7-1.7
				c-1.4-1.2-2.1-2.8-2.1-4.9v-12.5h1.9v12.5c0,1.6,0.5,2.8,1.6,3.7c1.1,0.9,2.5,1.3,4.3,1.3c1.8,0,3.2-0.4,4.2-1.3
				c1.1-0.9,1.6-2.1,1.6-3.7v-12.5H189.7z"/>
			<path id="XMLID_405_" class="st4" d="M196.9,546.1h9.4v1.6H195v-18.9h1.9V546.1z"/>
			<path id="XMLID_403_" class="st4" d="M223,530.5h-6.4v17.3h-1.9v-17.3h-6.2v-1.6H223V530.5z"/>
			<path id="XMLID_400_" class="st4" d="M242,540c0,2.5-0.7,4.4-2.1,5.9c-1.4,1.4-3.3,2.2-5.7,2.2c-2.4,0-4.3-0.7-5.7-2.2
				c-1.4-1.4-2.1-3.4-2.1-5.9v-3.4c0-2.5,0.7-4.4,2.1-5.9s3.3-2.2,5.7-2.2c2.4,0,4.3,0.7,5.7,2.2c1.4,1.4,2.1,3.4,2.1,5.9V540z
				 M240.1,536.6c0-2.1-0.5-3.7-1.5-4.7c-1-1.1-2.5-1.6-4.3-1.6c-1.9,0-3.3,0.5-4.3,1.6c-1,1.1-1.5,2.7-1.5,4.7v3.4
				c0,2.1,0.5,3.7,1.5,4.8c1,1.1,2.5,1.6,4.3,1.6s3.3-0.5,4.3-1.6c1-1.1,1.5-2.7,1.5-4.8V536.6z"/>
			<path id="XMLID_397_" class="st4" d="M248.9,539.5v8.3h-1.9v-18.9h7.2c2.2,0,3.8,0.5,4.9,1.4c1.1,0.9,1.7,2.2,1.7,4
				c0,1.1-0.3,2-0.8,2.7c-0.5,0.7-1.3,1.3-2.3,1.7v0c1.1,0.3,1.9,0.8,2.4,1.6c0.5,0.7,0.7,1.7,0.7,2.8v1.8c0,0.6,0,1.1,0.1,1.5
				c0.1,0.4,0.2,0.8,0.4,1.1v0.3h-2c-0.2-0.3-0.3-0.7-0.4-1.2c0-0.5-0.1-1.1-0.1-1.7v-1.8c0-1.1-0.3-2-1-2.6c-0.7-0.6-1.7-0.9-3-0.9
				H248.9z M248.9,537.9h5.2c1.7,0,2.8-0.3,3.6-0.9c0.7-0.6,1.1-1.5,1.1-2.7c0-1.2-0.4-2.2-1.1-2.8c-0.7-0.6-1.9-1-3.6-1h-5.2V537.9
				z"/>
			<path id="XMLID_395_" class="st4" d="M267.9,547.8h-1.9v-18.9h1.9V547.8z"/>
			<path id="XMLID_392_" class="st4" d="M284.8,542.8h-9.3l-1.9,4.9h-2l7.7-18.9h1.9l7.6,18.9h-2L284.8,542.8z M276.1,541.2h8
				l-4-10.1L276.1,541.2z"/>
			<path id="XMLID_388_" class="st4" d="M304.1,534.9c-0.9-1.1-1.6-2.1-2-3c-0.4-0.9-0.6-1.8-0.6-2.8c0-1.7,0.5-3.1,1.4-4
				c0.9-0.9,2.3-1.4,4-1.4c1.6,0,2.8,0.4,3.7,1.3c0.9,0.9,1.3,2,1.3,3.3c0,1-0.2,1.8-0.7,2.5c-0.5,0.7-1.2,1.4-2.1,2.1l-2.6,2
				l6.7,7.8c0.5-0.8,1-1.6,1.2-2.6c0.3-0.9,0.4-1.9,0.4-3.1h1.8c0,1.4-0.2,2.7-0.6,3.8c-0.4,1.1-1,2.2-1.7,3.1l3.1,3.6h-2.3l-2-2.3
				c-0.9,0.9-1.9,1.5-3,2c-1.1,0.4-2.3,0.7-3.5,0.7c-2.3,0-4.1-0.6-5.4-1.7c-1.3-1.1-1.9-2.7-1.9-4.6c0-1.3,0.4-2.5,1.2-3.5
				s1.9-2.1,3.4-3.2L304.1,534.9z M306.6,546.5c1,0,2-0.2,2.9-0.6c0.9-0.4,1.8-0.9,2.6-1.7l-6.7-7.8c-0.1-0.1-0.1-0.1-0.1-0.1
				c0,0-0.1-0.1-0.1-0.1l-0.8,0.6c-1.3,1-2.1,2-2.5,2.8c-0.4,0.8-0.6,1.6-0.6,2.3c0,1.4,0.5,2.5,1.4,3.4
				C303.5,546,304.8,546.5,306.6,546.5z M303.5,529.1c0,0.7,0.2,1.5,0.5,2.2c0.3,0.8,0.9,1.6,1.6,2.4l2.9-2.1c0.6-0.5,1.1-1,1.3-1.5
				c0.3-0.5,0.4-1.1,0.4-1.7c0-0.9-0.3-1.6-0.8-2.1c-0.6-0.6-1.4-0.8-2.4-0.8c-1.1,0-2,0.3-2.6,1
				C303.8,527.2,303.5,528.1,303.5,529.1z"/>
			<path id="XMLID_385_" class="st4" d="M331,540.7v7.1h-1.9v-18.9h7.2c2.1,0,3.7,0.5,4.9,1.6c1.2,1.1,1.7,2.5,1.7,4.3
				c0,1.8-0.6,3.2-1.7,4.3c-1.2,1.1-2.8,1.6-4.9,1.6H331z M331,539.1h5.2c1.6,0,2.7-0.4,3.5-1.2c0.8-0.8,1.2-1.8,1.2-3
				c0-1.2-0.4-2.3-1.2-3.1c-0.8-0.8-1.9-1.2-3.5-1.2H331V539.1z"/>
			<path id="XMLID_382_" class="st4" d="M349.2,539.5v8.3h-1.9v-18.9h7.2c2.2,0,3.8,0.5,4.9,1.4c1.1,0.9,1.7,2.2,1.7,4
				c0,1.1-0.3,2-0.8,2.7c-0.5,0.7-1.3,1.3-2.3,1.7v0c1.1,0.3,1.9,0.8,2.4,1.6c0.5,0.7,0.7,1.7,0.7,2.8v1.8c0,0.6,0,1.1,0.1,1.5
				c0.1,0.4,0.2,0.8,0.4,1.1v0.3h-2c-0.2-0.3-0.3-0.7-0.4-1.2c0-0.5-0.1-1.1-0.1-1.7v-1.8c0-1.1-0.3-2-1-2.6c-0.7-0.6-1.7-0.9-3-0.9
				H349.2z M349.2,537.9h5.2c1.7,0,2.8-0.3,3.6-0.9c0.7-0.6,1.1-1.5,1.1-2.7c0-1.2-0.4-2.2-1.1-2.8c-0.7-0.6-1.9-1-3.6-1h-5.2V537.9
				z"/>
			<path id="XMLID_379_" class="st4" d="M381.2,540c0,2.5-0.7,4.4-2.1,5.9s-3.3,2.2-5.7,2.2c-2.4,0-4.3-0.7-5.7-2.2
				c-1.4-1.4-2.1-3.4-2.1-5.9v-3.4c0-2.5,0.7-4.4,2.1-5.9c1.4-1.4,3.3-2.2,5.7-2.2c2.4,0,4.3,0.7,5.7,2.2c1.4,1.4,2.1,3.4,2.1,5.9
				V540z M379.2,536.6c0-2.1-0.5-3.7-1.5-4.7c-1-1.1-2.5-1.6-4.3-1.6c-1.9,0-3.3,0.5-4.3,1.6c-1,1.1-1.5,2.7-1.5,4.7v3.4
				c0,2.1,0.5,3.7,1.5,4.8c1,1.1,2.5,1.6,4.3,1.6c1.9,0,3.3-0.5,4.3-1.6c1-1.1,1.5-2.7,1.5-4.8V536.6z"/>
			<path id="XMLID_377_" class="st4" d="M395.2,528.9h1.9v13.3c0,1.8-0.6,3.3-1.7,4.3c-1.1,1-2.6,1.6-4.4,1.6c-2,0-3.6-0.5-4.7-1.4
				c-1.1-0.9-1.7-2.3-1.7-4.2h1.9c0,1.4,0.4,2.4,1.1,3c0.7,0.6,1.9,1,3.3,1c1.2,0,2.2-0.4,3-1.1s1.2-1.8,1.2-3.1V528.9z"/>
			<path id="XMLID_375_" class="st4" d="M414,538.7h-9.5v7.4h10.9v1.6h-12.8v-18.9h12.8v1.6h-10.9v6.6h9.5V538.7z"/>
			<path id="XMLID_373_" class="st4" d="M432.8,530.5h-6.4v17.3h-1.9v-17.3h-6.2v-1.6h14.5V530.5z"/>
			<path id="XMLID_370_" class="st4" d="M451.8,540c0,2.5-0.7,4.4-2.1,5.9s-3.3,2.2-5.7,2.2c-2.4,0-4.3-0.7-5.7-2.2
				c-1.4-1.4-2.1-3.4-2.1-5.9v-3.4c0-2.5,0.7-4.4,2.1-5.9c1.4-1.4,3.3-2.2,5.7-2.2c2.4,0,4.3,0.7,5.7,2.2c1.4,1.4,2.1,3.4,2.1,5.9
				V540z M449.9,536.6c0-2.1-0.5-3.7-1.5-4.7c-1-1.1-2.5-1.6-4.3-1.6c-1.9,0-3.3,0.5-4.3,1.6c-1,1.1-1.5,2.7-1.5,4.7v3.4
				c0,2.1,0.5,3.7,1.5,4.8c1,1.1,2.5,1.6,4.3,1.6c1.9,0,3.3-0.5,4.3-1.6c1-1.1,1.5-2.7,1.5-4.8V536.6z"/>
			<path id="XMLID_368_" class="st4" d="M468.5,543c0-0.9-0.4-1.7-1.1-2.2c-0.8-0.5-2.2-1.1-4.3-1.7c-2.4-0.6-4.1-1.3-5.1-2.1
				c-1-0.8-1.6-1.9-1.6-3.5c0-1.5,0.6-2.8,1.8-3.7c1.2-0.9,2.9-1.3,5.1-1.3c2.2,0,3.9,0.5,5.1,1.5c1.2,1,1.8,2.4,1.8,4.3h-1.9
				c0-1.2-0.4-2.2-1.3-3c-0.9-0.7-2.1-1.1-3.7-1.1c-1.7,0-2.9,0.3-3.7,0.9c-0.8,0.6-1.2,1.4-1.2,2.4c0,1,0.3,1.7,1,2.3
				c0.7,0.5,2.1,1.1,4.4,1.6c2.4,0.6,4.1,1.3,5.2,2.1c1.1,0.8,1.6,1.9,1.6,3.4c0,1.6-0.7,2.8-2,3.7c-1.3,0.9-3.1,1.3-5.4,1.3
				c-2.1,0-3.9-0.4-5.3-1.3c-1.4-0.9-2.1-2.4-2.1-4.4h1.9c0,1.5,0.5,2.5,1.6,3.1c1,0.6,2.3,1,3.9,1c1.7,0,3.1-0.3,4-0.9
				C468.1,544.8,468.5,544,468.5,543z"/>
		</g>
		<g id="XMLID_418_">
			<defs>
				<path id="XMLID_419_" d="M27.2,464.2v49.2h-2.9v-49.2H11v-2.9h29.3v2.9H27.2z M57.6,495.3c-0.3,0-0.6,0-0.9,0h-8.9v18.1h-2.9
					v-52.2h13.7c4,0.5,7.4,2.2,10.1,5c3.3,3.3,5,7.3,5,12c0,4.7-1.7,8.7-5,12.1c-2.3,2.3-4.9,3.8-7.9,4.5l12,18.6h-3.6L57.6,495.3z
					 M47.8,464.2v28.1h8.9c3.9,0,7.2-1.4,9.9-4.1c2.7-2.7,4.1-6.1,4.1-10c0-3.9-1.4-7.2-4.1-9.9c-2.7-2.7-6.1-4.1-9.9-4.1H47.8z
					 M82,461.3v52.2h-2.9v-52.2H82z M103.4,484.5c-3.7-1.2-6.7-2.9-8.8-5.1c-2.2-2.2-3.2-4.8-3.2-7.8c0-3,1.1-5.6,3.2-7.7
					c2.2-2.2,4.8-3.2,7.8-3.2c3,0,5.7,1.1,7.8,3.2c1.2,1.2,2,2.4,2.5,3.9l-2.6,1c-0.4-1.1-1-2-1.9-2.9c-1.6-1.6-3.5-2.3-5.7-2.3
					c-2.2,0-4.2,0.8-5.7,2.4c-1.6,1.6-2.4,3.5-2.4,5.8c0,2.2,0.8,4.2,2.4,5.7c1.5,1.5,3.5,2.8,6.1,4c4.2,1.3,7.7,3.4,10.5,6.3
					c3,3,4.5,6.6,4.5,10.9c0,4.3-1.5,7.9-4.5,11c-3,3-6.7,4.5-10.9,4.5c-4.3,0-7.9-1.5-10.9-4.6c-2.4-2.4-3.9-5.2-4.3-8.4l2.8-1
					c0.3,2.8,1.5,5.3,3.6,7.4c2.5,2.5,5.4,3.7,8.9,3.7c3.5,0,6.4-1.2,8.9-3.7c2.5-2.5,3.7-5.4,3.7-8.9c0-3.5-1.2-6.4-3.7-8.9
					C109.2,487.5,106.5,485.8,103.4,484.5z M125.3,488.1v25.3h-2.9v-52.2h2.9v22.2l16.7-22.2h3.8l-15.6,21l20.2,31.2h-3.6
					l-18.5-28.8L125.3,488.1z M182.2,461.3v2.9h-23.1v21.7h23.1v2.9h-23.1v21.7h23.1v2.9h-26.1v-52.2H182.2z M189.2,513.4v-52.2h2.9
					v49.2h20.2v2.9H189.2z M249.2,461.3l19,52.2H261l-6.7-18.5h-13.8l-6.7,18.5h-7.2l19-52.2H249.2z M251.9,488.2l-4.5-12.2
					l-4.4,12.2H251.9z M280.5,461.3l16.9,29.2l16.9-29.2h6.2v52.2h-6.7v-37.7l-16.3,28.2l-16.3-28.2v37.7h-6.7v-52.2H280.5z
					 M340.3,461.3c3,0,5.6,1.1,7.8,3.2c2.2,2.1,3.2,4.7,3.2,7.7c0,3.1-1.6,5-4.7,5.8c2.3,0.3,4.8,1.9,7.7,4.8
					c2.9,2.9,4.3,6.9,4.3,12c0,5.1-1.8,9.5-5.4,13.2c-3.4,3.5-6.7,5.3-10.1,5.3v0.1h-13.4v-52.2H340.3z M336.5,468v8.2h4.4
					c1-0.1,1.9-0.5,2.6-1.1c0.8-0.7,1.2-1.7,1.2-2.9c0-1.2-0.4-2.2-1.2-3c-0.8-0.8-1.9-1.2-3.1-1.2H336.5z M336.5,483.2v23.4h6.6
					v-0.1c1.4-0.1,3.1-1.2,5.2-3.4c2.3-2.3,3.4-5.1,3.4-8.4c0-3.2-1.1-5.9-3.4-8.2c-2.3-2.3-5-3.4-8.2-3.4H336.5z M371.9,461.3v52.2
					h-6.7v-52.2H371.9z M408.4,461.3v6.7h-21.4v15.9h21.4v6.7h-21.4v15.9h21.4v6.8h-28.1v-52.2H408.4z M415.4,461.3h6.2l21.5,37.2
					v-37.2h6.8v52.2H444l-21.8-37.7v37.7h-6.7V461.3z M473.3,468v45.4h-6.8V468h-12.2v-6.7h31.1v6.7H473.3z M507,461.3l19,52.2h-7.2
					l-6.7-18.5h-13.8l-6.7,18.5h-7.2l19-52.2H507z M509.6,488.2l-4.5-12.2l-4.4,12.2H509.6z M530.5,513.4v-52.2h6.7v45.4h18.6v6.8
					H530.5z"/>
			</defs>
			<clipPath id="XMLID_94_">
				<use xlink:href="#XMLID_419_"  style="overflow:visible;"/>
			</clipPath>
			
				<linearGradient id="XMLID_95_" gradientUnits="userSpaceOnUse" x1="-8.7857" y1="-16309.1953" x2="595.0969" y2="-16309.1953" gradientTransform="matrix(1 0 0 -1 0 -15816)">
				<stop  offset="0" style="stop-color:#99CC66"/>
				<stop  offset="1" style="stop-color:#336633"/>
			</linearGradient>
			<rect id="XMLID_445_" x="-8.8" y="451.8" class="st5" width="603.9" height="82.8"/>
		</g>
	</g>
</g>
<g id="Logo_branco" class="st0">
	<radialGradient id="XMLID_96_" cx="283.465" cy="283.465" r="283.465" gradientUnits="userSpaceOnUse">
		<stop  offset="0" style="stop-color:#99CC66"/>
		<stop  offset="1" style="stop-color:#336633"/>
	</radialGradient>
	<rect id="XMLID_25_" class="st6" width="566.9" height="566.9"/>
	<g id="img_3_" class="st1">
		<path id="XMLID_272_" class="st7" d="M209.5,332.9c1.9-0.3,3.6-0.7,5.3-0.7c37.2,0.5,53.4-36.1,41.1-65.5
			c-7.8-18.8-21.1-31.6-42.5-32c-19-0.4-35.2,13.8-38.5,32.9c-0.1,0.8-0.5,1.6-0.8,2.8c-4.1-9,2.9-26.3,9.6-33.3
			c22.2-23.3,58.8-22.6,80.3,3.1c8.6,10.3,14.9,22.9,21,35.1c8.1,16.2,13.8,33.5,26.3,47.2c12,13.1,26.5,20.3,44.1,20.9
			c2.4,0.1,4.7,0.5,7.5,0.9C339.5,378.3,229.7,370,209.5,332.9z M162.2,235.6c1.9-2.5,3.3-4.8,5.1-6.7c6.3-6.4,12.1-13.9,19.4-18.8
			c18-12.2,38.5-11,58.9-9.1c17.9,1.7,35.7,5.2,53.7,0.8c32.4-7.9,51.5-38.4,43.4-69.9c-3.3-12.7-14.3-24.6-24.8-26
			c1.7,1.5,2.8,2.5,3.9,3.4c16.8,13.7,18.2,41.7,3,57.1c-16.1,16.4-44.7,19.3-63.8,6.5c-20.2-13.5-26.4-34.4-16.9-57.1
			c1.3-3.1,2.8-6.2,4.5-10C203.2,110.9,149.3,192.1,162.2,235.6z M384.8,317.1c-24.8,10-52.2-8.5-52.7-35.7
			c-0.3-17.2,6.2-31.5,18.8-42.7c22.2-19.7,52.3-15.1,68.3,10c1.2,1.8,2.5,3.5,4,5.5c19.7-39.2-26.9-137.6-66.2-140.9
			c0,0.4-0.1,0.9,0,1.3c0.5,1.3,1,2.6,1.6,3.8c11.4,22.3,11.1,44.6-1.5,65.9c-9.6,16.3-21,31.6-31.1,47.7
			c-10.1,16.1-14.1,33.7-9.8,52.8c5.9,25.9,27.8,43.1,52.5,41.2c7.4-0.6,14-3.3,19.1-9.6C386.7,316.7,385.7,316.7,384.8,317.1z
			 M211.9,298.2c-9.3,3.9-17.6,1.2-25-5.2c-3.8-3.3-7.4-6.7-10.5-9.5c6.1,23.5,36.7,35.5,56.6,21c3.5-2.5,7-6.3,8.4-10.3
			c6.6-18.4-11.4-43.8-30.7-43.8c-8.1,0-12.9,4.7-16.1,11.6c-3.1,6.8-2.3,13.5,2.3,19.4c3.3,4.2,7.4,4.9,12,2.4
			c7.3-3.9,8.7-10.4,6.4-19.6C229.2,277.1,227,291.9,211.9,298.2z M280.9,142.3c-5.5-5.9-5.8-13.6-3.3-20.8
			c3.8-11,12.9-15.3,23.5-17.1c2.4-0.4,4.8-0.6,7.2-0.9c-1.5-2.1-2.9-2.7-4.4-2.9c-21.6-2.6-42.2,15.6-43.1,38
			c-0.4,10.3,5.1,19.1,14.5,22.7c11.7,4.4,23.1,3.5,33.8-3.1c13.4-8.3,14.3-26.5,1.9-35.1c-5.5-3.9-14.5-3.3-18.1,1.1
			c-3.7,4.5-2.6,13.7,2.6,18.2c1.9,1.7,4.6,2.5,8.8,4.7C294.6,147.8,286.8,148.7,280.9,142.3z M398.1,308
			c16-18.1,9.9-50.4-11.9-60.5c-4.3-2-10.4-2.6-14.9-1.3c-16.3,4.8-27,29.4-20.5,45.4c4.7,11.6,19,15.7,28.8,8.1
			c6-4.6,8-13.2,4.2-18.1c-4.6-6-12.8-6.5-19.1-1c-0.8,0.7-1.6,1.3-2.8,2.2c2.7-15.8,16.4-22.7,28.7-14.8c6.7,4.4,10.7,11,10.2,19.1
			c-0.4,7.3-2.5,14.5-3.7,21.5C397.1,308.7,397.7,308.5,398.1,308z"/>
		<g id="XMLID_267_">
			<path id="XMLID_271_" class="st8" d="M449.8,189.1c2.5,10.1,4,20.5,4.6,31c1.3-21.1-2.1-42.6-9.6-62.4
				C419.4,89.9,349.9,47.5,278,55c-83,7.7-149,81.3-144,165.1c4.5-91.4,83.7-162.8,175.4-153.8C376.8,72.1,434.4,123.4,449.8,189.1
				L449.8,189.1z"/>
			<path id="XMLID_270_" class="st8" d="M463.6,222.2c0.5,75.3-48.9,144.7-119,169.7c-16.2,5.9-33.1,9.4-50.3,10.7
				c17.3,0.8,34.9-1.3,51.7-6C429.1,373.4,484,290.3,475.1,204c-8.5-92.2-89-164.3-180.8-157.5C387.8,49.8,463.9,126.5,463.6,222.2
				L463.6,222.2z"/>
			<path id="XMLID_269_" class="st8" d="M483.2,228.2c-5,100.7-87.5,182.7-189,182.3c-101.5,0.3-184-81.6-189-182.3
				c-4.6,69.8,35.6,139,97,172.1c51.9,28.9,117.3,31.3,171.2,6.4C441.8,376.3,488.1,303.1,483.2,228.2L483.2,228.2z"/>
			<path id="XMLID_268_" class="st8" d="M96.3,204c8-89.4,73.1-164.2,158.1-184.9c13-3.2,26.3-5.2,39.8-6.1
				c-13.5-0.8-27.1-0.1-40.6,2C188.5,24.8,130.1,70,101.7,130.7c-27,56.2-27.8,124.7-2.2,181.6c33.4,76.5,112.7,128,194.7,122.6
				C176.5,428.8,84.8,324.9,96.3,204L96.3,204z"/>
		</g>
	</g>
	<g id="Texto_3_" class="st1">
		<g id="XMLID_76_">
			<defs>
				<path id="XMLID_77_" d="M27.2,464.2v49.2h-2.9v-49.2H11v-2.9h29.3v2.9H27.2z M57.6,495.3c-0.3,0-0.6,0-0.9,0h-8.9v18.1h-2.9
					v-52.2h13.7c4,0.5,7.4,2.2,10.1,5c3.3,3.3,5,7.3,5,12c0,4.7-1.7,8.7-5,12.1c-2.3,2.3-4.9,3.8-7.9,4.5l12,18.6h-3.6L57.6,495.3z
					 M47.8,464.2v28.1h8.9c3.9,0,7.2-1.4,9.9-4.1c2.7-2.7,4.1-6.1,4.1-10c0-3.9-1.4-7.2-4.1-9.9c-2.7-2.7-6.1-4.1-9.9-4.1H47.8z
					 M82,461.3v52.2h-2.9v-52.2H82z M103.4,484.5c-3.7-1.2-6.7-2.9-8.8-5.1c-2.2-2.2-3.2-4.8-3.2-7.8c0-3,1.1-5.6,3.2-7.7
					c2.2-2.2,4.8-3.2,7.8-3.2c3,0,5.7,1.1,7.8,3.2c1.2,1.2,2,2.4,2.5,3.9l-2.6,1c-0.4-1.1-1-2-1.9-2.9c-1.6-1.6-3.5-2.3-5.7-2.3
					c-2.2,0-4.2,0.8-5.7,2.4c-1.6,1.6-2.4,3.5-2.4,5.8c0,2.2,0.8,4.2,2.4,5.7c1.5,1.5,3.5,2.8,6.1,4c4.2,1.3,7.7,3.4,10.5,6.3
					c3,3,4.5,6.6,4.5,10.9c0,4.3-1.5,7.9-4.5,11c-3,3-6.7,4.5-10.9,4.5c-4.3,0-7.9-1.5-10.9-4.6c-2.4-2.4-3.9-5.2-4.3-8.4l2.8-1
					c0.3,2.8,1.5,5.3,3.6,7.4c2.5,2.5,5.4,3.7,8.9,3.7c3.5,0,6.4-1.2,8.9-3.7c2.5-2.5,3.7-5.4,3.7-8.9c0-3.5-1.2-6.4-3.7-8.9
					C109.2,487.5,106.5,485.8,103.4,484.5z M125.3,488.1v25.3h-2.9v-52.2h2.9v22.2l16.7-22.2h3.8l-15.6,21l20.2,31.2h-3.6
					l-18.5-28.8L125.3,488.1z M182.2,461.3v2.9h-23.1v21.7h23.1v2.9h-23.1v21.7h23.1v2.9h-26.1v-52.2H182.2z M189.2,513.4v-52.2h2.9
					v49.2h20.2v2.9H189.2z M249.2,461.3l19,52.2H261l-6.7-18.5h-13.8l-6.7,18.5h-7.2l19-52.2H249.2z M251.9,488.2l-4.5-12.2
					l-4.4,12.2H251.9z M280.5,461.3l16.9,29.2l16.9-29.2h6.2v52.2h-6.7v-37.7l-16.3,28.2l-16.3-28.2v37.7h-6.7v-52.2H280.5z
					 M340.3,461.3c3,0,5.6,1.1,7.8,3.2c2.2,2.1,3.2,4.7,3.2,7.7c0,3.1-1.6,5-4.7,5.8c2.3,0.3,4.8,1.9,7.7,4.8
					c2.9,2.9,4.3,6.9,4.3,12c0,5.1-1.8,9.5-5.4,13.2c-3.4,3.5-6.7,5.3-10.1,5.3v0.1h-13.4v-52.2H340.3z M336.5,468v8.2h4.4
					c1-0.1,1.9-0.5,2.6-1.1c0.8-0.7,1.2-1.7,1.2-2.9c0-1.2-0.4-2.2-1.2-3c-0.8-0.8-1.9-1.2-3.1-1.2H336.5z M336.5,483.2v23.4h6.6
					v-0.1c1.4-0.1,3.1-1.2,5.2-3.4c2.3-2.3,3.4-5.1,3.4-8.4c0-3.2-1.1-5.9-3.4-8.2c-2.3-2.3-5-3.4-8.2-3.4H336.5z M371.9,461.3v52.2
					h-6.7v-52.2H371.9z M408.4,461.3v6.7h-21.4v15.9h21.4v6.7h-21.4v15.9h21.4v6.8h-28.1v-52.2H408.4z M415.4,461.3h6.2l21.5,37.2
					v-37.2h6.8v52.2H444l-21.8-37.7v37.7h-6.7V461.3z M473.3,468v45.4h-6.8V468h-12.2v-6.7h31.1v6.7H473.3z M507,461.3l19,52.2h-7.2
					l-6.7-18.5h-13.8l-6.7,18.5h-7.2l19-52.2H507z M509.6,488.2l-4.5-12.2l-4.4,12.2H509.6z M530.5,513.4v-52.2h6.7v45.4h18.6v6.8
					H530.5z"/>
			</defs>
			<use xlink:href="#XMLID_77_"  style="overflow:visible;fill:#FFFFFF;"/>
			<clipPath id="XMLID_97_">
				<use xlink:href="#XMLID_77_"  style="overflow:visible;"/>
			</clipPath>
		</g>
		<g id="XMLID_2_">
			<path id="XMLID_74_" class="st8" d="M110.7,541.6c-0.1,2.1-0.7,3.7-2,4.8c-1.3,1.1-3,1.6-5.2,1.6c-2.3,0-4.1-0.7-5.4-2.2
				c-1.4-1.5-2.1-3.4-2.1-5.8v-3.4c0-2.4,0.7-4.4,2.1-5.8c1.4-1.5,3.2-2.2,5.4-2.2c2.3,0,4,0.5,5.3,1.6c1.3,1.1,1.9,2.7,2,4.8h-1.9
				c-0.1-1.6-0.6-2.8-1.4-3.6c-0.9-0.8-2.2-1.2-3.9-1.2c-1.7,0-3,0.6-4,1.8s-1.5,2.7-1.5,4.6v3.4c0,1.9,0.5,3.5,1.5,4.6
				c1,1.2,2.4,1.8,4,1.8c1.7,0,3-0.4,3.9-1.1s1.3-2,1.4-3.6H110.7z"/>
			<path id="XMLID_71_" class="st8" d="M130.3,540c0,2.5-0.7,4.4-2.1,5.9c-1.4,1.4-3.3,2.2-5.7,2.2c-2.4,0-4.3-0.7-5.7-2.2
				c-1.4-1.4-2.1-3.4-2.1-5.9v-3.4c0-2.5,0.7-4.4,2.1-5.9c1.4-1.4,3.3-2.2,5.7-2.2c2.4,0,4.3,0.7,5.7,2.2c1.4,1.4,2.1,3.4,2.1,5.9
				V540z M128.3,536.6c0-2.1-0.5-3.7-1.5-4.7c-1-1.1-2.5-1.6-4.3-1.6c-1.8,0-3.3,0.5-4.3,1.6c-1,1.1-1.5,2.7-1.5,4.7v3.4
				c0,2.1,0.5,3.7,1.5,4.8c1,1.1,2.5,1.6,4.3,1.6c1.9,0,3.3-0.5,4.3-1.6c1-1.1,1.5-2.7,1.5-4.8V536.6z"/>
			<path id="XMLID_69_" class="st8" d="M150.6,547.8h-1.9l-11.4-15.9l0,0v15.8h-1.9v-18.9h1.9l11.4,15.8l0,0v-15.8h1.9V547.8z"/>
			<path id="XMLID_67_" class="st8" d="M167.9,543c0-0.9-0.4-1.7-1.1-2.2c-0.8-0.5-2.2-1.1-4.3-1.7c-2.4-0.6-4.1-1.3-5.1-2.1
				s-1.6-1.9-1.6-3.5c0-1.5,0.6-2.8,1.8-3.7c1.2-0.9,2.9-1.3,5.1-1.3c2.2,0,3.9,0.5,5.1,1.5c1.2,1,1.8,2.4,1.8,4.3h-1.9
				c0-1.2-0.4-2.2-1.3-3c-0.9-0.7-2.1-1.1-3.7-1.1c-1.7,0-2.9,0.3-3.7,0.9c-0.8,0.6-1.2,1.4-1.2,2.4c0,1,0.3,1.7,1,2.3
				c0.7,0.5,2.1,1.1,4.4,1.6c2.4,0.6,4.1,1.3,5.2,2.1c1.1,0.8,1.6,1.9,1.6,3.4c0,1.6-0.7,2.8-2,3.7c-1.3,0.9-3.1,1.3-5.4,1.3
				c-2.1,0-3.9-0.4-5.3-1.3s-2.1-2.4-2.1-4.4h1.9c0,1.5,0.5,2.5,1.6,3.1c1,0.6,2.3,1,3.9,1c1.7,0,3.1-0.3,4-0.9
				C167.4,544.8,167.9,544,167.9,543z"/>
			<path id="XMLID_65_" class="st8" d="M189.7,528.9v12.5c0,2.1-0.7,3.8-2.1,4.9c-1.4,1.2-3.3,1.7-5.6,1.7c-2.3,0-4.2-0.6-5.7-1.7
				c-1.4-1.2-2.1-2.8-2.1-4.9v-12.5h1.9v12.5c0,1.6,0.5,2.8,1.6,3.7c1.1,0.9,2.5,1.3,4.3,1.3c1.8,0,3.2-0.4,4.2-1.3
				c1.1-0.9,1.6-2.1,1.6-3.7v-12.5H189.7z"/>
			<path id="XMLID_63_" class="st8" d="M196.9,546.1h9.4v1.6H195v-18.9h1.9V546.1z"/>
			<path id="XMLID_61_" class="st8" d="M223,530.5h-6.4v17.3h-1.9v-17.3h-6.2v-1.6H223V530.5z"/>
			<path id="XMLID_58_" class="st8" d="M242,540c0,2.5-0.7,4.4-2.1,5.9c-1.4,1.4-3.3,2.2-5.7,2.2c-2.4,0-4.3-0.7-5.7-2.2
				c-1.4-1.4-2.1-3.4-2.1-5.9v-3.4c0-2.5,0.7-4.4,2.1-5.9s3.3-2.2,5.7-2.2c2.4,0,4.3,0.7,5.7,2.2c1.4,1.4,2.1,3.4,2.1,5.9V540z
				 M240.1,536.6c0-2.1-0.5-3.7-1.5-4.7c-1-1.1-2.5-1.6-4.3-1.6c-1.9,0-3.3,0.5-4.3,1.6c-1,1.1-1.5,2.7-1.5,4.7v3.4
				c0,2.1,0.5,3.7,1.5,4.8c1,1.1,2.5,1.6,4.3,1.6s3.3-0.5,4.3-1.6c1-1.1,1.5-2.7,1.5-4.8V536.6z"/>
			<path id="XMLID_55_" class="st8" d="M248.9,539.5v8.3h-1.9v-18.9h7.2c2.2,0,3.8,0.5,4.9,1.4c1.1,0.9,1.7,2.2,1.7,4
				c0,1.1-0.3,2-0.8,2.7c-0.5,0.7-1.3,1.3-2.3,1.7v0c1.1,0.3,1.9,0.8,2.4,1.6c0.5,0.7,0.7,1.7,0.7,2.8v1.8c0,0.6,0,1.1,0.1,1.5
				c0.1,0.4,0.2,0.8,0.4,1.1v0.3h-2c-0.2-0.3-0.3-0.7-0.4-1.2c0-0.5-0.1-1.1-0.1-1.7v-1.8c0-1.1-0.3-2-1-2.6c-0.7-0.6-1.7-0.9-3-0.9
				H248.9z M248.9,537.9h5.2c1.7,0,2.8-0.3,3.6-0.9c0.7-0.6,1.1-1.5,1.1-2.7c0-1.2-0.4-2.2-1.1-2.8c-0.7-0.6-1.9-1-3.6-1h-5.2V537.9
				z"/>
			<path id="XMLID_53_" class="st8" d="M267.9,547.8h-1.9v-18.9h1.9V547.8z"/>
			<path id="XMLID_50_" class="st8" d="M284.8,542.8h-9.3l-1.9,4.9h-2l7.7-18.9h1.9l7.6,18.9h-2L284.8,542.8z M276.1,541.2h8
				l-4-10.1L276.1,541.2z"/>
			<path id="XMLID_46_" class="st8" d="M304.1,534.9c-0.9-1.1-1.6-2.1-2-3c-0.4-0.9-0.6-1.8-0.6-2.8c0-1.7,0.5-3.1,1.4-4
				c0.9-0.9,2.3-1.4,4-1.4c1.6,0,2.8,0.4,3.7,1.3c0.9,0.9,1.3,2,1.3,3.3c0,1-0.2,1.8-0.7,2.5c-0.5,0.7-1.2,1.4-2.1,2.1l-2.6,2
				l6.7,7.8c0.5-0.8,1-1.6,1.2-2.6c0.3-0.9,0.4-1.9,0.4-3.1h1.8c0,1.4-0.2,2.7-0.6,3.8c-0.4,1.1-1,2.2-1.7,3.1l3.1,3.6h-2.3l-2-2.3
				c-0.9,0.9-1.9,1.5-3,2c-1.1,0.4-2.3,0.7-3.5,0.7c-2.3,0-4.1-0.6-5.4-1.7c-1.3-1.1-1.9-2.7-1.9-4.6c0-1.3,0.4-2.5,1.2-3.5
				s1.9-2.1,3.4-3.2L304.1,534.9z M306.6,546.5c1,0,2-0.2,2.9-0.6c0.9-0.4,1.8-0.9,2.6-1.7l-6.7-7.8c-0.1-0.1-0.1-0.1-0.1-0.1
				c0,0-0.1-0.1-0.1-0.1l-0.8,0.6c-1.3,1-2.1,2-2.5,2.8c-0.4,0.8-0.6,1.6-0.6,2.3c0,1.4,0.5,2.5,1.4,3.4
				C303.5,546,304.8,546.5,306.6,546.5z M303.5,529.1c0,0.7,0.2,1.5,0.5,2.2c0.3,0.8,0.9,1.6,1.6,2.4l2.9-2.1c0.6-0.5,1.1-1,1.3-1.5
				c0.3-0.5,0.4-1.1,0.4-1.7c0-0.9-0.3-1.6-0.8-2.1c-0.6-0.6-1.4-0.8-2.4-0.8c-1.1,0-2,0.3-2.6,1
				C303.8,527.2,303.5,528.1,303.5,529.1z"/>
			<path id="XMLID_43_" class="st8" d="M331,540.7v7.1h-1.9v-18.9h7.2c2.1,0,3.7,0.5,4.9,1.6c1.2,1.1,1.7,2.5,1.7,4.3
				c0,1.8-0.6,3.2-1.7,4.3c-1.2,1.1-2.8,1.6-4.9,1.6H331z M331,539.1h5.2c1.6,0,2.7-0.4,3.5-1.2c0.8-0.8,1.2-1.8,1.2-3
				c0-1.2-0.4-2.3-1.2-3.1c-0.8-0.8-1.9-1.2-3.5-1.2H331V539.1z"/>
			<path id="XMLID_40_" class="st8" d="M349.2,539.5v8.3h-1.9v-18.9h7.2c2.2,0,3.8,0.5,4.9,1.4c1.1,0.9,1.7,2.2,1.7,4
				c0,1.1-0.3,2-0.8,2.7c-0.5,0.7-1.3,1.3-2.3,1.7v0c1.1,0.3,1.9,0.8,2.4,1.6c0.5,0.7,0.7,1.7,0.7,2.8v1.8c0,0.6,0,1.1,0.1,1.5
				c0.1,0.4,0.2,0.8,0.4,1.1v0.3h-2c-0.2-0.3-0.3-0.7-0.4-1.2c0-0.5-0.1-1.1-0.1-1.7v-1.8c0-1.1-0.3-2-1-2.6c-0.7-0.6-1.7-0.9-3-0.9
				H349.2z M349.2,537.9h5.2c1.7,0,2.8-0.3,3.6-0.9c0.7-0.6,1.1-1.5,1.1-2.7c0-1.2-0.4-2.2-1.1-2.8c-0.7-0.6-1.9-1-3.6-1h-5.2V537.9
				z"/>
			<path id="XMLID_37_" class="st8" d="M381.2,540c0,2.5-0.7,4.4-2.1,5.9s-3.3,2.2-5.7,2.2c-2.4,0-4.3-0.7-5.7-2.2
				c-1.4-1.4-2.1-3.4-2.1-5.9v-3.4c0-2.5,0.7-4.4,2.1-5.9c1.4-1.4,3.3-2.2,5.7-2.2c2.4,0,4.3,0.7,5.7,2.2c1.4,1.4,2.1,3.4,2.1,5.9
				V540z M379.2,536.6c0-2.1-0.5-3.7-1.5-4.7c-1-1.1-2.5-1.6-4.3-1.6c-1.9,0-3.3,0.5-4.3,1.6c-1,1.1-1.5,2.7-1.5,4.7v3.4
				c0,2.1,0.5,3.7,1.5,4.8c1,1.1,2.5,1.6,4.3,1.6c1.9,0,3.3-0.5,4.3-1.6c1-1.1,1.5-2.7,1.5-4.8V536.6z"/>
			<path id="XMLID_35_" class="st8" d="M395.2,528.9h1.9v13.3c0,1.8-0.6,3.3-1.7,4.3c-1.1,1-2.6,1.6-4.4,1.6c-2,0-3.6-0.5-4.7-1.4
				c-1.1-0.9-1.7-2.3-1.7-4.2h1.9c0,1.4,0.4,2.4,1.1,3c0.7,0.6,1.9,1,3.3,1c1.2,0,2.2-0.4,3-1.1s1.2-1.8,1.2-3.1V528.9z"/>
			<path id="XMLID_33_" class="st8" d="M414,538.7h-9.5v7.4h10.9v1.6h-12.8v-18.9h12.8v1.6h-10.9v6.6h9.5V538.7z"/>
			<path id="XMLID_31_" class="st8" d="M432.8,530.5h-6.4v17.3h-1.9v-17.3h-6.2v-1.6h14.5V530.5z"/>
			<path id="XMLID_28_" class="st8" d="M451.8,540c0,2.5-0.7,4.4-2.1,5.9s-3.3,2.2-5.7,2.2c-2.4,0-4.3-0.7-5.7-2.2
				c-1.4-1.4-2.1-3.4-2.1-5.9v-3.4c0-2.5,0.7-4.4,2.1-5.9c1.4-1.4,3.3-2.2,5.7-2.2c2.4,0,4.3,0.7,5.7,2.2c1.4,1.4,2.1,3.4,2.1,5.9
				V540z M449.9,536.6c0-2.1-0.5-3.7-1.5-4.7c-1-1.1-2.5-1.6-4.3-1.6c-1.9,0-3.3,0.5-4.3,1.6c-1,1.1-1.5,2.7-1.5,4.7v3.4
				c0,2.1,0.5,3.7,1.5,4.8c1,1.1,2.5,1.6,4.3,1.6c1.9,0,3.3-0.5,4.3-1.6c1-1.1,1.5-2.7,1.5-4.8V536.6z"/>
			<path id="XMLID_26_" class="st8" d="M468.5,543c0-0.9-0.4-1.7-1.1-2.2c-0.8-0.5-2.2-1.1-4.3-1.7c-2.4-0.6-4.1-1.3-5.1-2.1
				c-1-0.8-1.6-1.9-1.6-3.5c0-1.5,0.6-2.8,1.8-3.7c1.2-0.9,2.9-1.3,5.1-1.3c2.2,0,3.9,0.5,5.1,1.5c1.2,1,1.8,2.4,1.8,4.3h-1.9
				c0-1.2-0.4-2.2-1.3-3c-0.9-0.7-2.1-1.1-3.7-1.1c-1.7,0-2.9,0.3-3.7,0.9c-0.8,0.6-1.2,1.4-1.2,2.4c0,1,0.3,1.7,1,2.3
				c0.7,0.5,2.1,1.1,4.4,1.6c2.4,0.6,4.1,1.3,5.2,2.1c1.1,0.8,1.6,1.9,1.6,3.4c0,1.6-0.7,2.8-2,3.7c-1.3,0.9-3.1,1.3-5.4,1.3
				c-2.1,0-3.9-0.4-5.3-1.3c-1.4-0.9-2.1-2.4-2.1-4.4h1.9c0,1.5,0.5,2.5,1.6,3.1c1,0.6,2.3,1,3.9,1c1.7,0,3.1-0.3,4-0.9
				C468.1,544.8,468.5,544,468.5,543z"/>
		</g>
	</g>
</g>
<g id="Logo_branco_cópia" class="st0">
	<radialGradient id="XMLID_98_" cx="283.465" cy="283.465" r="283.465" gradientUnits="userSpaceOnUse">
		<stop  offset="0" style="stop-color:#99CC66"/>
		<stop  offset="1" style="stop-color:#336633"/>
	</radialGradient>
	<rect id="XMLID_145_" class="st9" width="566.9" height="566.9"/>
	<g id="LogoBranco_cópia_cópia">
		<g id="img_4_" class="st1">
			<path id="XMLID_17_" class="st7" d="M186.7,426.4c2.5-0.4,4.7-1,6.9-0.9c48.9,0.6,70.1-47.4,54-86
				c-10.3-24.6-27.7-41.5-55.8-42.1c-24.9-0.5-46.2,18.1-50.5,43.3c-0.2,1.1-0.6,2.1-1.1,3.7c-5.4-11.9,3.8-34.6,12.6-43.8
				c29.2-30.6,77.2-29.6,105.4,4.1c11.3,13.5,19.5,30.1,27.6,46.1c10.6,21.2,18.2,44,34.5,61.9c15.7,17.3,34.8,26.6,57.9,27.5
				c3.1,0.1,6.2,0.7,9.8,1.1C357.5,486,213.2,475.2,186.7,426.4z M124.6,298.6c2.4-3.2,4.3-6.3,6.8-8.8c8.3-8.5,15.9-18.2,25.5-24.7
				c23.6-16,50.6-14.5,77.3-12c23.5,2.2,46.9,6.8,70.5,1c42.5-10.4,67.6-50.4,57-91.7c-4.3-16.6-18.8-32.4-32.6-34.1
				c2.3,2,3.7,3.3,5.2,4.5c22,18,23.9,54.7,3.9,75c-21.2,21.5-58.7,25.3-83.7,8.5c-26.5-17.8-34.7-45.1-22.2-75
				c1.7-4.1,3.6-8.1,5.9-13.2C178.4,134.9,107.6,241.5,124.6,298.6z M416.9,405.6c-32.6,13.2-68.6-11.1-69.2-46.9
				c-0.4-22.6,8.1-41.4,24.6-56c29.2-25.8,68.6-19.8,89.7,13.2c1.5,2.4,3.3,4.6,5.2,7.2c25.9-51.5-35.3-180.7-87-185
				c0,0.6-0.2,1.2,0,1.7c0.6,1.7,1.3,3.4,2.1,5c14.9,29.2,14.5,58.5-2,86.5c-12.6,21.5-27.6,41.5-40.8,62.6
				c-13.2,21.2-18.6,44.3-12.9,69.4c7.7,34,36.6,56.7,69,54.2c9.8-0.8,18.4-4.4,25.1-12.6C419.5,405.1,418.1,405.1,416.9,405.6z
				 M189.9,380.8c-12.3,5.1-23.2,1.5-32.9-6.8c-5-4.3-9.7-8.8-13.8-12.5c8,30.9,48.2,46.6,74.3,27.6c4.6-3.3,9.2-8.3,11.1-13.6
				c8.7-24.2-15-57.5-40.3-57.5c-10.6,0-17,6.2-21.1,15.3c-4.1,9-3.1,17.7,3,25.5c4.3,5.6,9.7,6.4,15.8,3.1
				c9.6-5.2,11.4-13.7,8.5-25.8C212.6,353.1,209.8,372.5,189.9,380.8z M280.5,176.1c-7.2-7.8-7.6-17.8-4.3-27.3
				c5-14.5,17-20.2,30.8-22.4c3.1-0.5,6.3-0.8,9.5-1.2c-2-2.8-3.9-3.6-5.8-3.8c-28.4-3.4-55.5,20.5-56.6,49.9
				c-0.5,13.5,6.6,25.1,19,29.8c15.3,5.8,30.4,4.6,44.4-4c17.7-10.9,18.8-34.7,2.5-46.1c-7.2-5.1-19-4.3-23.8,1.4
				c-4.9,5.9-3.4,18,3.4,23.9c2.6,2.2,6,3.3,11.5,6.1C298.5,183.4,288.3,184.5,280.5,176.1z M434.5,393.8c21-23.8,13-66.2-15.6-79.5
				c-5.7-2.6-13.6-3.5-19.5-1.7c-21.4,6.3-35.4,38.6-27,59.6c6.1,15.3,24.9,20.6,37.8,10.7c7.9-6.1,10.5-17.3,5.5-23.8
				c-6.1-7.9-16.9-8.5-25.1-1.3c-1,0.9-2.1,1.7-3.6,2.9c3.5-20.8,21.6-29.8,37.7-19.4c8.9,5.7,14.1,14.4,13.4,25.1
				c-0.6,9.6-3.2,19.1-4.9,28.2C433.1,394.6,433.9,394.4,434.5,393.8z"/>
			<g id="XMLID_8_">
				<path id="XMLID_16_" class="st8" d="M502.3,237.6c3.2,13.3,5.2,26.9,6,40.7c1.7-27.7-2.8-55.9-12.6-81.9
					C462.4,107.3,371.1,51.6,276.6,61.5C167.7,71.6,81,168.3,87.6,278.3c6-120,109.9-213.8,230.3-202
					C406.4,84,482.1,151.3,502.3,237.6L502.3,237.6z"/>
				<path id="XMLID_11_" class="st8" d="M520.4,281c0.7,98.9-64.2,190-156.3,222.9c-21.3,7.8-43.4,12.3-66,14
					c22.7,1.1,45.8-1.7,67.8-7.9c109.1-30.4,181.3-139.6,169.6-253C524.4,136,418.7,41.3,298.1,50.3
					C420.9,54.7,520.8,155.4,520.4,281L520.4,281z"/>
				<path id="XMLID_9_" class="st8" d="M546.2,288.9C539.7,421.2,431.3,528.7,298,528.3C164.6,528.7,56.3,421.2,49.7,288.9
					c-6,91.7,46.8,182.6,127.4,226.1c68.1,37.9,154,41.1,224.8,8.5C491.8,483.4,552.6,387.3,546.2,288.9L546.2,288.9z"/>
				<path id="XMLID_24_" class="st8" d="M38.1,257.1C48.5,139.8,134,41.5,245.7,14.2c17.1-4.3,34.6-6.9,52.3-8
					c-17.7-1.1-35.6-0.2-53.3,2.6c-85.5,13-162.2,72.3-199.5,152C9.7,234.8,8.6,324.6,42.2,399.4c43.8,100.4,148,168.1,255.7,161
					C143.4,552.4,23,415.9,38.1,257.1L38.1,257.1z"/>
			</g>
		</g>
	</g>
</g>
</svg>
