<?xml version="1.0" encoding="utf-8"?>
<!-- Generator: Adobe Illustrator 19.0.0, SVG Export Plug-In . SVG Version: 6.00 Build 0)  -->
<svg version="1.1" id="Camada_1" xmlns="http://www.w3.org/2000/svg" xmlns:xlink="http://www.w3.org/1999/xlink" x="0px" y="0px"
	 viewBox="0 0 283.5 85" style="enable-background:new 0 0 283.5 85;" xml:space="preserve">
<style type="text/css">
	.st0{fill:#FFFFFF;}
	.st1{fill-rule:evenodd;clip-rule:evenodd;fill:#FFFFFF;}
</style>
<g id="XMLID_3_">
	<g id="XMLID_1_">
		<path id="XMLID_2_" class="st0" d="M78.7,33.8v18.5h-1.1V33.8h-5v-1.1h11v1.1H78.7z"/>
		<path id="XMLID_5_" class="st0" d="M90.1,45.5c-0.1,0-0.2,0-0.3,0h-3.3v6.8h-1.1V32.7h5.1c1.5,0.2,2.8,0.8,3.8,1.9
			c1.2,1.2,1.9,2.8,1.9,4.5c0,1.8-0.6,3.3-1.9,4.5c-0.9,0.9-1.9,1.4-3,1.7l4.5,7h-1.4L90.1,45.5z M86.5,33.8v10.6h3.3
			c1.5,0,2.7-0.5,3.7-1.5c1-1,1.5-2.3,1.5-3.7c0-1.5-0.5-2.7-1.5-3.7s-2.3-1.5-3.7-1.5H86.5z"/>
		<path id="XMLID_8_" class="st0" d="M99.3,32.7v19.6h-1.1V32.7H99.3z"/>
		<path id="XMLID_10_" class="st0" d="M107.3,41.5c-1.4-0.5-2.5-1.1-3.3-1.9c-0.8-0.8-1.2-1.8-1.2-2.9c0-1.1,0.4-2.1,1.2-2.9
			c0.8-0.8,1.8-1.2,2.9-1.2c1.1,0,2.1,0.4,2.9,1.2c0.4,0.4,0.8,0.9,0.9,1.5l-1,0.4c-0.1-0.4-0.4-0.8-0.7-1.1
			c-0.6-0.6-1.3-0.9-2.2-0.9c-0.8,0-1.6,0.3-2.2,0.9c-0.6,0.6-0.9,1.3-0.9,2.2c0,0.8,0.3,1.6,0.9,2.2c0.6,0.5,1.3,1,2.3,1.5
			c1.6,0.5,2.9,1.3,4,2.4c1.1,1.1,1.7,2.5,1.7,4.1c0,1.6-0.6,3-1.7,4.1c-1.1,1.1-2.5,1.7-4.1,1.7c-1.6,0-3-0.6-4.1-1.7
			c-0.9-0.9-1.4-2-1.6-3.2l1-0.4c0.1,1.1,0.6,2,1.4,2.8c0.9,0.9,2,1.4,3.3,1.4c1.3,0,2.4-0.5,3.3-1.4c0.9-0.9,1.4-2,1.4-3.3
			c0-1.3-0.5-2.4-1.4-3.3C109.5,42.6,108.5,41.9,107.3,41.5z"/>
		<path id="XMLID_12_" class="st0" d="M115.6,42.8v9.5h-1.1V32.7h1.1v8.3l6.3-8.3h1.4l-5.9,7.9l7.6,11.7h-1.4l-7-10.8L115.6,42.8z"
			/>
		<path id="XMLID_14_" class="st0" d="M137,32.7v1.1h-8.7V42h8.7v1.1h-8.7v8.1h8.7v1.1h-9.8V32.7H137z"/>
		<path id="XMLID_16_" class="st0" d="M139.6,52.3V32.7h1.1v18.5h7.6v1.1H139.6z"/>
		<path id="XMLID_18_" class="st0" d="M162.1,32.7l7.1,19.6h-2.7l-2.5-6.9h-5.2l-2.5,6.9h-2.7l7.1-19.6H162.1z M163.1,42.9l-1.7-4.6
			l-1.7,4.6H163.1z"/>
		<path id="XMLID_21_" class="st0" d="M173.9,32.7l6.4,11l6.3-11h2.3v19.6h-2.5V38.2l-6.1,10.6l-6.1-10.6v14.2h-2.5V32.7H173.9z"/>
		<path id="XMLID_23_" class="st0" d="M196.4,32.7c1.1,0,2.1,0.4,2.9,1.2c0.8,0.8,1.2,1.8,1.2,2.9c0,1.2-0.6,1.9-1.8,2.2
			c0.8,0.1,1.8,0.7,2.9,1.8c1.1,1.1,1.6,2.6,1.6,4.5c0,1.9-0.7,3.6-2,5c-1.3,1.3-2.5,2-3.8,2v0h-5V32.7H196.4z M194.9,35.3v3.1h1.7
			c0.4,0,0.7-0.2,1-0.4c0.3-0.3,0.4-0.6,0.4-1.1c0-0.5-0.2-0.8-0.5-1.1c-0.3-0.3-0.7-0.4-1.2-0.4H194.9z M194.9,41v8.8h2.5v0
			c0.5,0,1.2-0.5,1.9-1.3c0.9-0.9,1.3-1.9,1.3-3.1c0-1.2-0.4-2.2-1.3-3.1c-0.9-0.9-1.9-1.3-3.1-1.3H194.9z"/>
		<path id="XMLID_27_" class="st0" d="M208.2,32.7v19.6h-2.5V32.7H208.2z"/>
		<path id="XMLID_29_" class="st0" d="M221.9,32.7v2.5h-8v6h8v2.5h-8v6h8v2.5h-10.6V32.7H221.9z"/>
		<path id="XMLID_31_" class="st0" d="M224.6,32.7h2.3l8.1,14v-14h2.5v19.6h-2.2l-8.2-14.2v14.2h-2.5V32.7z"/>
		<path id="XMLID_33_" class="st0" d="M246.3,35.3v17.1h-2.5V35.3h-4.6v-2.5h11.7v2.5H246.3z"/>
		<path id="XMLID_35_" class="st0" d="M259,32.7l7.1,19.6h-2.7l-2.5-6.9h-5.2l-2.5,6.9h-2.7l7.1-19.6H259z M259.9,42.9l-1.7-4.6
			l-1.7,4.6H259.9z"/>
		<path id="XMLID_38_" class="st0" d="M267.8,52.3V32.7h2.5v17h7v2.5H267.8z"/>
	</g>
	<g id="XMLID_110_">
		<path id="XMLID_49_" class="st1" d="M25.5,59.1c0.3,0,0.5-0.1,0.8-0.1c5.6,0.1,8-5.3,6.2-9.6c-1.2-2.8-3.2-4.6-6.4-4.7
			c-2.9-0.1-5.3,2-5.8,4.8c0,0.1-0.1,0.2-0.1,0.4c-0.6-1.3,0.4-3.9,1.4-4.9c3.3-3.4,8.8-3.3,12.1,0.5c1.3,1.5,2.2,3.4,3.2,5.2
			c1.2,2.4,2.1,4.9,4,6.9c1.8,1.9,4,3,6.6,3.1c0.4,0,0.7,0.1,1.1,0.1C45.1,65.8,28.6,64.5,25.5,59.1z M18.4,44.8
			c0.3-0.4,0.5-0.7,0.8-1c1-0.9,1.8-2,2.9-2.8c2.7-1.8,5.8-1.6,8.9-1.3c2.7,0.2,5.4,0.8,8.1,0.1c4.9-1.2,7.7-5.6,6.5-10.3
			c-0.5-1.9-2.1-3.6-3.7-3.8c0.3,0.2,0.4,0.4,0.6,0.5c2.5,2,2.7,6.1,0.4,8.4c-2.4,2.4-6.7,2.8-9.6,0.9c-3-2-4-5.1-2.5-8.4
			c0.2-0.5,0.4-0.9,0.7-1.5C24.6,26.5,16.5,38.4,18.4,44.8z M51.9,56.8c-3.7,1.5-7.9-1.2-7.9-5.2c0-2.5,0.9-4.6,2.8-6.3
			c3.3-2.9,7.9-2.2,10.3,1.5c0.2,0.3,0.4,0.5,0.6,0.8c3-5.8-4-20.2-10-20.7c0,0.1,0,0.1,0,0.2c0.1,0.2,0.2,0.4,0.2,0.6
			c1.7,3.3,1.7,6.5-0.2,9.7c-1.4,2.4-3.2,4.6-4.7,7c-1.5,2.4-2.1,5-1.5,7.8c0.9,3.8,4.2,6.3,7.9,6.1c1.1-0.1,2.1-0.5,2.9-1.4
			C52.2,56.7,52,56.7,51.9,56.8z M25.9,54c-1.4,0.6-2.7,0.2-3.8-0.8c-0.6-0.5-1.1-1-1.6-1.4c0.9,3.5,5.5,5.2,8.5,3.1
			c0.5-0.4,1.1-0.9,1.3-1.5c1-2.7-1.7-6.4-4.6-6.4c-1.2,0-1.9,0.7-2.4,1.7c-0.5,1-0.4,2,0.3,2.9c0.5,0.6,1.1,0.7,1.8,0.4
			c1.1-0.6,1.3-1.5,1-2.9C28.5,50.9,28.2,53.1,25.9,54z M36.3,31.1c-0.8-0.9-0.9-2-0.5-3.1c0.6-1.6,1.9-2.3,3.5-2.5
			c0.4-0.1,0.7-0.1,1.1-0.1c-0.2-0.3-0.4-0.4-0.7-0.4c-3.2-0.4-6.4,2.3-6.5,5.6c-0.1,1.5,0.8,2.8,2.2,3.3c1.8,0.7,3.5,0.5,5.1-0.5
			c2-1.2,2.2-3.9,0.3-5.2c-0.8-0.6-2.2-0.5-2.7,0.2c-0.6,0.7-0.4,2,0.4,2.7c0.3,0.2,0.7,0.4,1.3,0.7C38.3,31.9,37.1,32,36.3,31.1z
			 M53.9,55.4c2.4-2.7,1.5-7.4-1.8-8.9c-0.7-0.3-1.6-0.4-2.2-0.2c-2.4,0.7-4.1,4.3-3.1,6.7c0.7,1.7,2.9,2.3,4.3,1.2
			c0.9-0.7,1.2-1.9,0.6-2.7c-0.7-0.9-1.9-0.9-2.9-0.1c-0.1,0.1-0.2,0.2-0.4,0.3c0.4-2.3,2.5-3.3,4.3-2.2c1,0.6,1.6,1.6,1.5,2.8
			c-0.1,1.1-0.4,2.1-0.6,3.2C53.7,55.5,53.8,55.5,53.9,55.4z"/>
		<g id="XMLID_43_">
			<g id="XMLID_44_">
				<path id="XMLID_48_" class="st0" d="M61.6,37.9c0.4,1.5,0.6,3.1,0.7,4.7c0.2-3.2-0.3-6.4-1.4-9.4c-3.8-10.2-14.3-16.6-25.1-15.4
					c-12.5,1.2-22.4,12.2-21.7,24.8C14.8,28.8,26.7,18,40.5,19.4C50.6,20.3,59.3,28,61.6,37.9L61.6,37.9z"/>
				<path id="XMLID_47_" class="st0" d="M63.4,42.5c0.1,11-7.3,21.1-17.7,24.7c-2.4,0.8-4.9,1.3-7.5,1.5c2.6,0.2,5.2-0.1,7.7-0.8
					c12.4-3.2,20.5-15.3,19.2-28c-1.3-13.5-13.2-24.3-26.9-23.5C52.1,17.1,63.5,28.5,63.4,42.5L63.4,42.5z"/>
				<path id="XMLID_46_" class="st0" d="M66.7,42.5C65.9,57.7,53.5,70,38.2,69.9C23,70,10.6,57.7,9.8,42.5
					C9.1,53,15.2,63.4,24.4,68.4c7.8,4.3,17.6,4.7,25.7,1C60.4,64.8,67.4,53.8,66.7,42.5L66.7,42.5z"/>
				<path id="XMLID_45_" class="st0" d="M8.5,39.6c1.2-13.1,11-24.1,23.8-27.2c2-0.5,4-0.8,6-0.9c-2-0.1-4.1,0-6.1,0.3
					c-9.8,1.4-18.6,8.1-22.8,17c-4.1,8.3-4.2,18.3-0.3,26.7c5,11.2,17,18.8,29.3,18C20.5,72.6,6.7,57.4,8.5,39.6L8.5,39.6z"/>
			</g>
		</g>
	</g>
</g>
</svg>
