<?xml version="1.0" encoding="utf-8"?>
<!-- Generator: Adobe Illustrator 19.0.0, SVG Export Plug-In . SVG Version: 6.00 Build 0)  -->
<svg version="1.1" xmlns="http://www.w3.org/2000/svg" xmlns:xlink="http://www.w3.org/1999/xlink" x="0px" y="0px"
	 viewBox="0 0 850.4 283.5" style="enable-background:new 0 0 850.4 283.5;" xml:space="preserve">
<style type="text/css">
	.st0{display:none;}
	.st1{display:inline;}
	.st2{display:inline;clip-path:url(#XMLID_85_);fill-rule:evenodd;clip-rule:evenodd;fill:url(#XMLID_86_);}
	.st3{display:inline;fill-rule:evenodd;clip-rule:evenodd;fill:url(#XMLID_87_);}
	.st4{fill:#99CC66;}
	.st5{fill:#336633;}
	.st6{fill-rule:evenodd;clip-rule:evenodd;fill:#FFFFFF;}
	.st7{fill:#FFFFFF;}
	.st8{clip-path:url(#XMLID_89_);fill-rule:evenodd;clip-rule:evenodd;fill:url(#XMLID_90_);}
	.st9{display:inline;fill:#FFFFFF;}
	.st10{display:inline;fill-rule:evenodd;clip-rule:evenodd;fill:url(#XMLID_92_);}
</style>
<g id="Camada_1_cópia">
	<rect id="Background_2_" y="0" class="st0" width="850.4" height="283.5"/>
	<g id="Texto" class="st0">
		<defs>
			<path id="XMLID_257_" d="M210,122.6v58.8h-3.5v-58.8h-15.8v-3.5h35v3.5H210z M246.3,159.8c-0.3,0-0.7,0-1.1,0h-10.6v21.6h-3.5
				v-62.3h16.3c4.7,0.6,8.8,2.6,12.1,6c4,4,6,8.8,6,14.4c0,5.6-2,10.4-6,14.4c-2.8,2.7-5.9,4.6-9.5,5.4l14.4,22.1h-4.3L246.3,159.8z
				 M234.7,122.7v33.6h10.6c4.6,0,8.6-1.6,11.8-4.9c3.3-3.3,4.9-7.2,4.9-11.9s-1.6-8.6-4.9-11.9c-3.3-3.3-7.2-4.9-11.8-4.9H234.7z
				 M275.4,119.1v62.3h-3.5v-62.3H275.4z M301,146.9c-4.4-1.5-7.9-3.5-10.5-6.1c-2.6-2.6-3.9-5.7-3.9-9.3c0-3.6,1.3-6.7,3.9-9.2
				c2.6-2.6,5.7-3.9,9.3-3.9c3.6,0,6.7,1.3,9.3,3.9c1.4,1.4,2.4,2.9,3,4.6l-3.2,1.2c-0.5-1.3-1.2-2.4-2.3-3.5
				c-1.9-1.9-4.2-2.8-6.8-2.8c-2.7,0-5,0.9-6.8,2.8c-1.9,1.9-2.8,4.2-2.8,6.9c0,2.7,0.9,5,2.8,6.8c1.8,1.7,4.2,3.3,7.3,4.8
				c5,1.6,9.2,4.1,12.6,7.5c3.6,3.6,5.4,7.9,5.4,13c0,5.1-1.8,9.5-5.4,13.1c-3.6,3.6-8,5.4-13,5.4c-5.1,0-9.4-1.8-13-5.4
				c-2.9-2.9-4.6-6.2-5.2-10l3.3-1.2c0.4,3.4,1.8,6.3,4.3,8.8c2.9,2.9,6.5,4.4,10.6,4.4c4.2,0,7.7-1.5,10.6-4.4
				c2.9-2.9,4.4-6.5,4.4-10.6c0-4.1-1.5-7.7-4.4-10.6C307.9,150.5,304.7,148.5,301,146.9z M327.2,151.2v30.2h-3.5v-62.3h3.5v26.5
				l19.9-26.5h4.5l-18.7,25.1l24.1,37.2h-4.3L330.6,147L327.2,151.2z M395.1,119.1v3.5h-27.6v25.9h27.6v3.5h-27.6v25.9h27.6v3.5H364
				v-62.3H395.1z M403.4,181.4v-62.3h3.5v58.8H431v3.5H403.4z M475,119.1l22.6,62.3h-8.6l-8-22h-16.5l-8,22H448l22.6-62.3H475z
				 M478.2,151.3l-5.3-14.6l-5.3,14.6H478.2z M512.4,119.1l20.2,34.9l20.1-34.9h7.4v62.3H552v-45L532.5,170l-19.5-33.6v45H505v-62.3
				H512.4z M583.8,119.1c3.6,0,6.7,1.3,9.3,3.8c2.6,2.6,3.9,5.6,3.9,9.2c0,3.7-1.9,6-5.6,6.9c2.7,0.4,5.8,2.3,9.2,5.8
				c3.4,3.5,5.2,8.2,5.2,14.3c0,6.1-2.1,11.4-6.4,15.8c-4,4.2-8.1,6.3-12.1,6.3v0.1h-16v-62.3H583.8z M579.3,127.2v9.8h5.3
				c1.2-0.1,2.2-0.6,3.1-1.4c0.9-0.9,1.4-2,1.4-3.5c0-1.5-0.5-2.7-1.5-3.6c-1-0.9-2.2-1.4-3.7-1.4H579.3z M579.3,145.3v28h7.9v-0.1
				c1.7-0.1,3.7-1.4,6.2-4c2.7-2.8,4.1-6.1,4.1-10c0-3.8-1.4-7.1-4.1-9.8c-2.7-2.7-6-4.1-9.8-4.1H579.3z M621.5,119.1v62.3h-8.1
				v-62.3H621.5z M665.1,119.1v8.1h-25.5v19h25.5v8.1h-25.5v19h25.5v8.1h-33.5v-62.3H665.1z M673.4,119.1h7.4l25.7,44.4v-44.4h8.1
				v62.3h-7l-26-45v45h-8.1V119.1z M742.6,127.2v54.2h-8.1v-54.2h-14.5v-8.1h37.1v8.1H742.6z M782.7,119.1l22.6,62.3h-8.6l-8-22
				h-16.5l-8,22h-8.6l22.6-62.3H782.7z M785.9,151.3l-5.3-14.6l-5.3,14.6H785.9z M810.8,181.4v-62.3h8.1v54.2h22.3v8.1H810.8z"/>
		</defs>
		<clipPath id="XMLID_85_" class="st1">
			<use xlink:href="#XMLID_257_"  style="overflow:visible;"/>
		</clipPath>
		
			<linearGradient id="XMLID_86_" gradientUnits="userSpaceOnUse" x1="167.0878" y1="-16255.2734" x2="887.9011" y2="-16255.2734" gradientTransform="matrix(1 0 0 -1 0 -16098)">
			<stop  offset="0" style="stop-color:#99CC66"/>
			<stop  offset="1" style="stop-color:#336633"/>
		</linearGradient>
		<rect id="XMLID_283_" x="167.1" y="107.9" class="st2" width="720.8" height="98.8"/>
	</g>
	<g id="img_4_" class="st0">
		<linearGradient id="XMLID_87_" gradientUnits="userSpaceOnUse" x1="39.847" y1="154.1999" x2="155.5009" y2="154.1999">
			<stop  offset="0" style="stop-color:#99CC66"/>
			<stop  offset="1" style="stop-color:#336633"/>
		</linearGradient>
		<path id="XMLID_77_" class="st3" d="M61.1,197.4c0.8-0.1,1.6-0.3,2.3-0.3c16.1,0.2,23.1-15.6,17.8-28.3
			c-3.4-8.1-9.1-13.7-18.4-13.8c-8.2-0.2-15.2,6-16.6,14.2c-0.1,0.4-0.2,0.7-0.4,1.2c-1.8-3.9,1.2-11.4,4.1-14.4
			c9.6-10.1,25.4-9.8,34.7,1.4c3.7,4.5,6.4,9.9,9.1,15.2c3.5,7,6,14.5,11.4,20.4c5.2,5.7,11.5,8.8,19.1,9.1c1,0,2,0.2,3.2,0.4
			C117.4,217,69.9,213.4,61.1,197.4z M40.7,155.3c0.8-1.1,1.4-2.1,2.2-2.9c2.7-2.8,5.2-6,8.4-8.1c7.8-5.3,16.6-4.8,25.5-4
			c7.7,0.7,15.4,2.2,23.2,0.3c14-3.4,22.3-16.6,18.8-30.2c-1.4-5.5-6.2-10.7-10.7-11.2c0.7,0.7,1.2,1.1,1.7,1.5
			c7.2,5.9,7.9,18,1.3,24.7c-7,7.1-19.3,8.3-27.6,2.8c-8.7-5.9-11.4-14.9-7.3-24.7c0.6-1.4,1.2-2.7,2-4.3
			C58.4,101.4,35.1,136.5,40.7,155.3z M136.9,190.5c-10.7,4.3-22.6-3.7-22.8-15.4c-0.1-7.4,2.7-13.6,8.1-18.5
			c9.6-8.5,22.6-6.5,29.5,4.3c0.5,0.8,1.1,1.5,1.7,2.4c8.5-16.9-11.6-59.5-28.6-60.9c0,0.2-0.1,0.4,0,0.6c0.2,0.6,0.4,1.1,0.7,1.6
			c4.9,9.6,4.8,19.3-0.7,28.5c-4.2,7.1-9.1,13.7-13.4,20.6c-4.4,7-6.1,14.6-4.2,22.8c2.5,11.2,12,18.7,22.7,17.8
			c3.2-0.2,6.1-1.4,8.3-4.2C137.8,190.4,137.3,190.4,136.9,190.5z M62.2,182.4c-4,1.7-7.6,0.5-10.8-2.3c-1.6-1.4-3.2-2.9-4.6-4.1
			c2.6,10.2,15.9,15.3,24.5,9.1c1.5-1.1,3-2.7,3.6-4.5c2.9-8-4.9-18.9-13.3-18.9c-3.5,0-5.6,2.1-6.9,5c-1.3,3-1,5.8,1,8.4
			c1.4,1.8,3.2,2.1,5.2,1c3.2-1.7,3.8-4.5,2.8-8.5C69.7,173.3,68.7,179.6,62.2,182.4z M92,115c-2.4-2.6-2.5-5.9-1.4-9
			c1.7-4.8,5.6-6.6,10.2-7.4c1-0.2,2.1-0.3,3.1-0.4c-0.7-0.9-1.3-1.2-1.9-1.3c-9.3-1.1-18.3,6.8-18.6,16.4c-0.2,4.4,2.2,8.3,6.3,9.8
			c5,1.9,10,1.5,14.6-1.3c5.8-3.6,6.2-11.4,0.8-15.2c-2.4-1.7-6.3-1.4-7.8,0.5c-1.6,2-1.1,5.9,1.1,7.9c0.8,0.7,2,1.1,3.8,2
			C98,117.4,94.6,117.7,92,115z M142.7,186.6c6.9-7.8,4.3-21.8-5.1-26.2c-1.9-0.9-4.5-1.1-6.4-0.6c-7,2.1-11.7,12.7-8.9,19.6
			c2,5,8.2,6.8,12.5,3.5c2.6-2,3.5-5.7,1.8-7.8c-2-2.6-5.6-2.8-8.3-0.4c-0.3,0.3-0.7,0.5-1.2,1c1.1-6.8,7.1-9.8,12.4-6.4
			c2.9,1.9,4.6,4.7,4.4,8.3c-0.2,3.2-1.1,6.3-1.6,9.3C142.3,186.9,142.5,186.8,142.7,186.6z"/>
		<g id="XMLID_72_" class="st1">
			<path id="XMLID_76_" class="st4" d="M165.1,135.2c1.1,4.4,1.7,8.9,2,13.4c0.5-9.1-0.9-18.4-4.1-27c-11-29.3-41.1-47.7-72.2-44.4
				c-35.9,3.3-64.4,35.2-62.3,71.4c2-39.5,36.2-70.4,75.8-66.5C133.5,84.6,158.4,106.8,165.1,135.2L165.1,135.2z"/>
			<path id="XMLID_75_" class="st5" d="M171,149.5c0.2,32.6-21.2,62.6-51.5,73.4c-7,2.6-14.3,4.1-21.7,4.6
				c7.5,0.4,15.1-0.6,22.3-2.6c35.9-10,59.7-46,55.8-83.3c-3.7-39.9-38.5-71.1-78.2-68.1C138.3,75,171.2,108.1,171,149.5L171,149.5z
				"/>
			<path id="XMLID_74_" class="st4" d="M179.5,152.1c-2.1,43.6-37.8,79-81.7,78.9c-43.9,0.1-79.6-35.3-81.7-78.9
				c-2,30.2,15.4,60.1,41.9,74.4c22.4,12.5,50.7,13.5,74,2.8C161.6,216.1,181.6,184.5,179.5,152.1L179.5,152.1z"/>
			<path id="XMLID_73_" class="st5" d="M12.2,141.6c3.4-38.6,31.6-71,68.4-80c5.6-1.4,11.4-2.3,17.2-2.6C91.9,58.7,86,59,80.2,59.9
				C52.1,64.2,26.8,83.7,14.5,110c-11.7,24.3-12,53.9-1,78.5c14.4,33.1,48.7,55.3,84.2,53C46.9,238.9,7.2,193.9,12.2,141.6
				L12.2,141.6z"/>
		</g>
	</g>
	<g id="Texto_2_">
		<defs>
			<path id="XMLID_136_" d="M210,122.6v58.8h-3.5v-58.8h-15.8v-3.5h35v3.5H210z M246.3,159.8c-0.3,0-0.7,0-1.1,0h-10.6v21.6h-3.5
				v-62.3h16.3c4.7,0.6,8.8,2.6,12.1,6c4,4,6,8.8,6,14.4c0,5.6-2,10.4-6,14.4c-2.8,2.7-5.9,4.6-9.5,5.4l14.4,22.1h-4.3L246.3,159.8z
				 M234.7,122.7v33.6h10.6c4.6,0,8.6-1.6,11.8-4.9c3.3-3.3,4.9-7.2,4.9-11.9s-1.6-8.6-4.9-11.9c-3.3-3.3-7.2-4.9-11.8-4.9H234.7z
				 M275.4,119.1v62.3h-3.5v-62.3H275.4z M301,146.9c-4.4-1.5-7.9-3.5-10.5-6.1c-2.6-2.6-3.9-5.7-3.9-9.3c0-3.6,1.3-6.7,3.9-9.2
				c2.6-2.6,5.7-3.9,9.3-3.9c3.6,0,6.7,1.3,9.3,3.9c1.4,1.4,2.4,2.9,3,4.6l-3.2,1.2c-0.5-1.3-1.2-2.4-2.3-3.5
				c-1.9-1.9-4.2-2.8-6.8-2.8c-2.7,0-5,0.9-6.8,2.8c-1.9,1.9-2.8,4.2-2.8,6.9c0,2.7,0.9,5,2.8,6.8c1.8,1.7,4.2,3.3,7.3,4.8
				c5,1.6,9.2,4.1,12.6,7.5c3.6,3.6,5.4,7.9,5.4,13c0,5.1-1.8,9.5-5.4,13.1c-3.6,3.6-8,5.4-13,5.4c-5.1,0-9.4-1.8-13-5.4
				c-2.9-2.9-4.6-6.2-5.2-10l3.3-1.2c0.4,3.4,1.8,6.3,4.3,8.8c2.9,2.9,6.5,4.4,10.6,4.4c4.2,0,7.7-1.5,10.6-4.4
				c2.9-2.9,4.4-6.5,4.4-10.6c0-4.1-1.5-7.7-4.4-10.6C307.9,150.5,304.7,148.5,301,146.9z M327.2,151.2v30.2h-3.5v-62.3h3.5v26.5
				l19.9-26.5h4.5l-18.7,25.1l24.1,37.2h-4.3L330.6,147L327.2,151.2z M395.1,119.1v3.5h-27.6v25.9h27.6v3.5h-27.6v25.9h27.6v3.5H364
				v-62.3H395.1z M403.4,181.4v-62.3h3.5v58.8H431v3.5H403.4z M475,119.1l22.6,62.3h-8.6l-8-22h-16.5l-8,22H448l22.6-62.3H475z
				 M478.2,151.3l-5.3-14.6l-5.3,14.6H478.2z M512.4,119.1l20.2,34.9l20.1-34.9h7.4v62.3H552v-45L532.5,170l-19.5-33.6v45H505v-62.3
				H512.4z M583.8,119.1c3.6,0,6.7,1.3,9.3,3.8c2.6,2.6,3.9,5.6,3.9,9.2c0,3.7-1.9,6-5.6,6.9c2.7,0.4,5.8,2.3,9.2,5.8
				c3.4,3.5,5.2,8.2,5.2,14.3c0,6.1-2.1,11.4-6.4,15.8c-4,4.2-8.1,6.3-12.1,6.3v0.1h-16v-62.3H583.8z M579.3,127.2v9.8h5.3
				c1.2-0.1,2.2-0.6,3.1-1.4c0.9-0.9,1.4-2,1.4-3.5c0-1.5-0.5-2.7-1.5-3.6c-1-0.9-2.2-1.4-3.7-1.4H579.3z M579.3,145.3v28h7.9v-0.1
				c1.7-0.1,3.7-1.4,6.2-4c2.7-2.8,4.1-6.1,4.1-10c0-3.8-1.4-7.1-4.1-9.8c-2.7-2.7-6-4.1-9.8-4.1H579.3z M621.5,119.1v62.3h-8.1
				v-62.3H621.5z M665.1,119.1v8.1h-25.5v19h25.5v8.1h-25.5v19h25.5v8.1h-33.5v-62.3H665.1z M673.4,119.1h7.4l25.7,44.4v-44.4h8.1
				v62.3h-7l-26-45v45h-8.1V119.1z M742.6,127.2v54.2h-8.1v-54.2h-14.5v-8.1h37.1v8.1H742.6z M782.7,119.1l22.6,62.3h-8.6l-8-22
				h-16.5l-8,22h-8.6l22.6-62.3H782.7z M785.9,151.3l-5.3-14.6l-5.3,14.6H785.9z M810.8,181.4v-62.3h8.1v54.2h22.3v8.1H810.8z"/>
		</defs>
		<use xlink:href="#XMLID_136_"  style="overflow:visible;fill:#FFFFFF;"/>
		<clipPath id="XMLID_88_">
			<use xlink:href="#XMLID_136_"  style="overflow:visible;"/>
		</clipPath>
	</g>
	<g id="img_1_">
		<path id="XMLID_62_" class="st6" d="M61.1,197.4c0.8-0.1,1.6-0.3,2.3-0.3c16.1,0.2,23.1-15.6,17.8-28.3
			c-3.4-8.1-9.1-13.7-18.4-13.8c-8.2-0.2-15.2,6-16.6,14.2c-0.1,0.4-0.2,0.7-0.4,1.2c-1.8-3.9,1.2-11.4,4.1-14.4
			c9.6-10.1,25.4-9.8,34.7,1.4c3.7,4.5,6.4,9.9,9.1,15.2c3.5,7,6,14.5,11.4,20.4c5.2,5.7,11.5,8.8,19.1,9.1c1,0,2,0.2,3.2,0.4
			C117.4,217,69.9,213.4,61.1,197.4z M40.7,155.3c0.8-1.1,1.4-2.1,2.2-2.9c2.7-2.8,5.2-6,8.4-8.1c7.8-5.3,16.6-4.8,25.5-4
			c7.7,0.7,15.4,2.2,23.2,0.3c14-3.4,22.3-16.6,18.8-30.2c-1.4-5.5-6.2-10.7-10.7-11.2c0.7,0.7,1.2,1.1,1.7,1.5
			c7.2,5.9,7.9,18,1.3,24.7c-7,7.1-19.3,8.3-27.6,2.8c-8.7-5.9-11.4-14.9-7.3-24.7c0.6-1.4,1.2-2.7,2-4.3
			C58.4,101.4,35.1,136.5,40.7,155.3z M136.9,190.5c-10.7,4.3-22.6-3.7-22.8-15.4c-0.1-7.4,2.7-13.6,8.1-18.5
			c9.6-8.5,22.6-6.5,29.5,4.3c0.5,0.8,1.1,1.5,1.7,2.4c8.5-16.9-11.6-59.5-28.6-60.9c0,0.2-0.1,0.4,0,0.6c0.2,0.6,0.4,1.1,0.7,1.6
			c4.9,9.6,4.8,19.3-0.7,28.5c-4.2,7.1-9.1,13.7-13.4,20.6c-4.4,7-6.1,14.6-4.2,22.8c2.5,11.2,12,18.7,22.7,17.8
			c3.2-0.2,6.1-1.4,8.3-4.2C137.8,190.4,137.3,190.4,136.9,190.5z M62.2,182.4c-4,1.7-7.6,0.5-10.8-2.3c-1.6-1.4-3.2-2.9-4.6-4.1
			c2.6,10.2,15.9,15.3,24.5,9.1c1.5-1.1,3-2.7,3.6-4.5c2.9-8-4.9-18.9-13.3-18.9c-3.5,0-5.6,2.1-6.9,5c-1.3,3-1,5.8,1,8.4
			c1.4,1.8,3.2,2.1,5.2,1c3.2-1.7,3.8-4.5,2.8-8.5C69.7,173.3,68.7,179.6,62.2,182.4z M92,115c-2.4-2.6-2.5-5.9-1.4-9
			c1.7-4.8,5.6-6.6,10.2-7.4c1-0.2,2.1-0.3,3.1-0.4c-0.7-0.9-1.3-1.2-1.9-1.3c-9.3-1.1-18.3,6.8-18.6,16.4c-0.2,4.4,2.2,8.3,6.3,9.8
			c5,1.9,10,1.5,14.6-1.3c5.8-3.6,6.2-11.4,0.8-15.2c-2.4-1.7-6.3-1.4-7.8,0.5c-1.6,2-1.1,5.9,1.1,7.9c0.8,0.7,2,1.1,3.8,2
			C98,117.4,94.6,117.7,92,115z M142.7,186.6c6.9-7.8,4.3-21.8-5.1-26.2c-1.9-0.9-4.5-1.1-6.4-0.6c-7,2.1-11.7,12.7-8.9,19.6
			c2,5,8.2,6.8,12.5,3.5c2.6-2,3.5-5.7,1.8-7.8c-2-2.6-5.6-2.8-8.3-0.4c-0.3,0.3-0.7,0.5-1.2,1c1.1-6.8,7.1-9.8,12.4-6.4
			c2.9,1.9,4.6,4.7,4.4,8.3c-0.2,3.2-1.1,6.3-1.6,9.3C142.3,186.9,142.5,186.8,142.7,186.6z"/>
		<g id="XMLID_1_">
			<path id="XMLID_61_" class="st7" d="M165.1,135.2c1.1,4.4,1.7,8.9,2,13.4c0.5-9.1-0.9-18.4-4.1-27c-11-29.3-41.1-47.7-72.2-44.4
				c-35.9,3.3-64.4,35.2-62.3,71.4c2-39.5,36.2-70.4,75.8-66.5C133.5,84.6,158.4,106.8,165.1,135.2L165.1,135.2z"/>
			<path id="XMLID_60_" class="st7" d="M171,149.5c0.2,32.6-21.2,62.6-51.5,73.4c-7,2.6-14.3,4.1-21.7,4.6
				c7.5,0.4,15.1-0.6,22.3-2.6c35.9-10,59.7-46,55.8-83.3c-3.7-39.9-38.5-71.1-78.2-68.1C138.3,75,171.2,108.1,171,149.5L171,149.5z
				"/>
			<path id="XMLID_43_" class="st7" d="M179.5,152.1c-2.1,43.6-37.8,79-81.7,78.9c-43.9,0.1-79.6-35.3-81.7-78.9
				c-2,30.2,15.4,60.1,41.9,74.4c22.4,12.5,50.7,13.5,74,2.8C161.6,216.1,181.6,184.5,179.5,152.1L179.5,152.1z"/>
			<path id="XMLID_40_" class="st7" d="M12.2,141.6c3.4-38.6,31.6-71,68.4-80c5.6-1.4,11.4-2.3,17.2-2.6C91.9,58.7,86,59,80.2,59.9
				C52.1,64.2,26.8,83.7,14.5,110c-11.7,24.3-12,53.9-1,78.5c14.4,33.1,48.7,55.3,84.2,53C46.9,238.9,7.2,193.9,12.2,141.6
				L12.2,141.6z"/>
		</g>
	</g>
</g>
<g id="Camada_1" class="st0">
	<rect id="Background_1_" y="0" width="850.4" height="283.5"/>
	<g id="Texto_4_">
		<g id="XMLID_418_" class="st1">
			<defs>
				<path id="XMLID_419_" d="M210,103.5v58.8h-3.5v-58.8h-15.8V100h35v3.5H210z M246.3,140.6c-0.3,0-0.7,0-1.1,0h-10.6v21.6h-3.5
					V100h16.3c4.7,0.6,8.8,2.6,12.1,6c4,4,6,8.8,6,14.4c0,5.6-2,10.4-6,14.4c-2.8,2.7-5.9,4.6-9.5,5.4l14.4,22.1h-4.3L246.3,140.6z
					 M234.7,103.5v33.6h10.6c4.6,0,8.6-1.6,11.8-4.9c3.3-3.3,4.9-7.2,4.9-11.9s-1.6-8.6-4.9-11.9c-3.3-3.3-7.2-4.9-11.8-4.9H234.7z
					 M275.4,100v62.3h-3.5V100H275.4z M301,127.8c-4.4-1.5-7.9-3.5-10.5-6.1c-2.6-2.6-3.9-5.7-3.9-9.3c0-3.6,1.3-6.7,3.9-9.2
					c2.6-2.6,5.7-3.9,9.3-3.9c3.6,0,6.7,1.3,9.3,3.9c1.4,1.4,2.4,2.9,3,4.6L309,109c-0.5-1.3-1.2-2.4-2.3-3.5
					c-1.9-1.9-4.2-2.8-6.8-2.8c-2.7,0-5,0.9-6.8,2.8c-1.9,1.9-2.8,4.2-2.8,6.9c0,2.7,0.9,5,2.8,6.8c1.8,1.7,4.2,3.3,7.3,4.8
					c5,1.6,9.2,4.1,12.6,7.5c3.6,3.6,5.4,7.9,5.4,13c0,5.1-1.8,9.5-5.4,13.1c-3.6,3.6-8,5.4-13,5.4c-5.1,0-9.4-1.8-13-5.4
					c-2.9-2.9-4.6-6.2-5.2-10l3.3-1.2c0.4,3.4,1.8,6.3,4.3,8.8c2.9,2.9,6.5,4.4,10.6,4.4c4.2,0,7.7-1.5,10.6-4.4
					c2.9-2.9,4.4-6.5,4.4-10.6c0-4.1-1.5-7.7-4.4-10.6C307.9,131.4,304.7,129.3,301,127.8z M327.2,132.1v30.2h-3.5V100h3.5v26.5
					l19.9-26.5h4.5l-18.7,25.1l24.1,37.2h-4.3l-22.1-34.4L327.2,132.1z M395.1,100v3.5h-27.6v25.9h27.6v3.5h-27.6v25.9h27.6v3.5H364
					V100H395.1z M403.4,162.3V100h3.5v58.8H431v3.5H403.4z M475,100l22.6,62.3h-8.6l-8-22h-16.5l-8,22H448l22.6-62.3H475z
					 M478.2,132.2l-5.3-14.6l-5.3,14.6H478.2z M512.4,100l20.2,34.9l20.1-34.9h7.4v62.3H552v-45l-19.4,33.6l-19.5-33.6v45H505V100
					H512.4z M583.8,100c3.6,0,6.7,1.3,9.3,3.8c2.6,2.6,3.9,5.6,3.9,9.2c0,3.7-1.9,6-5.6,6.9c2.7,0.4,5.8,2.3,9.2,5.8
					c3.4,3.5,5.2,8.2,5.2,14.3c0,6.1-2.1,11.4-6.4,15.8c-4,4.2-8.1,6.3-12.1,6.3v0.1h-16V100H583.8z M579.3,108.1v9.8h5.3
					c1.2-0.1,2.2-0.6,3.1-1.4c0.9-0.9,1.4-2,1.4-3.5c0-1.5-0.5-2.7-1.5-3.6c-1-0.9-2.2-1.4-3.7-1.4H579.3z M579.3,126.2v28h7.9V154
					c1.7-0.1,3.7-1.4,6.2-4c2.7-2.8,4.1-6.1,4.1-10c0-3.8-1.4-7.1-4.1-9.8c-2.7-2.7-6-4.1-9.8-4.1H579.3z M621.5,100v62.3h-8.1V100
					H621.5z M665.1,100v8.1h-25.5v19h25.5v8.1h-25.5v19h25.5v8.1h-33.5V100H665.1z M673.4,100h7.4l25.7,44.4V100h8.1v62.3h-7l-26-45
					v45h-8.1V100z M742.6,108.1v54.2h-8.1v-54.2h-14.5V100h37.1v8.1H742.6z M782.7,100l22.6,62.3h-8.6l-8-22h-16.5l-8,22h-8.6
					l22.6-62.3H782.7z M785.9,132.2l-5.3-14.6l-5.3,14.6H785.9z M810.8,162.3V100h8.1v54.2h22.3v8.1H810.8z"/>
			</defs>
			<clipPath id="XMLID_89_">
				<use xlink:href="#XMLID_419_"  style="overflow:visible;"/>
			</clipPath>
			
				<linearGradient id="XMLID_90_" gradientUnits="userSpaceOnUse" x1="167.0878" y1="-16236.125" x2="887.9011" y2="-16236.125" gradientTransform="matrix(1 0 0 -1 0 -16098)">
				<stop  offset="0" style="stop-color:#99CC66"/>
				<stop  offset="1" style="stop-color:#336633"/>
			</linearGradient>
			<rect id="XMLID_445_" x="167.1" y="88.7" class="st8" width="720.8" height="98.8"/>
		</g>
		<g id="XMLID_357_" class="st1">
			<path id="XMLID_416_" class="st5" d="M309.7,195.9c-0.1,2.6-0.9,4.5-2.4,5.7c-1.5,1.3-3.6,1.9-6.3,1.9c-2.7,0-4.9-0.9-6.5-2.6
				c-1.6-1.7-2.5-4.1-2.5-7v-4c0-2.9,0.8-5.2,2.5-7c1.6-1.7,3.8-2.6,6.5-2.6c2.7,0,4.8,0.6,6.3,1.9c1.5,1.3,2.3,3.2,2.4,5.7h-2.3
				c-0.1-1.9-0.7-3.4-1.7-4.3c-1-0.9-2.6-1.4-4.6-1.4c-2,0-3.6,0.7-4.8,2.1c-1.2,1.4-1.8,3.2-1.8,5.5v4c0,2.3,0.6,4.1,1.8,5.5
				c1.2,1.4,2.8,2.1,4.8,2.1c2.1,0,3.6-0.5,4.6-1.4s1.6-2.4,1.7-4.3H309.7z"/>
			<path id="XMLID_413_" class="st5" d="M333.1,194c0,3-0.8,5.3-2.5,7c-1.7,1.7-3.9,2.6-6.8,2.6c-2.9,0-5.1-0.9-6.8-2.6
				c-1.7-1.7-2.5-4.1-2.5-7v-4c0-3,0.8-5.3,2.5-7c1.7-1.7,3.9-2.6,6.8-2.6s5.1,0.9,6.8,2.6c1.7,1.7,2.5,4.1,2.5,7V194z M330.8,190
				c0-2.5-0.6-4.4-1.8-5.7c-1.2-1.3-3-1.9-5.2-1.9c-2.2,0-3.9,0.6-5.1,1.9c-1.2,1.3-1.8,3.2-1.8,5.7v4c0,2.5,0.6,4.4,1.8,5.7
				c1.2,1.3,2.9,1.9,5.2,1.9c2.2,0,3.9-0.6,5.2-1.9c1.2-1.3,1.8-3.2,1.8-5.7V190z"/>
			<path id="XMLID_411_" class="st5" d="M357.3,203.3H355l-13.7-18.9l-0.1,0v18.9H339v-22.6h2.3l13.7,18.9l0.1,0v-18.9h2.3V203.3z"
				/>
			<path id="XMLID_409_" class="st5" d="M378,197.6c0-1.1-0.4-2-1.3-2.7c-0.9-0.7-2.6-1.3-5.1-2c-2.8-0.7-4.9-1.6-6.1-2.5
				c-1.3-0.9-1.9-2.3-1.9-4.1c0-1.8,0.7-3.3,2.2-4.4c1.5-1.1,3.5-1.6,6.1-1.6c2.6,0,4.7,0.6,6.1,1.8c1.4,1.2,2.2,2.9,2.2,5.1h-2.3
				c0-1.5-0.5-2.7-1.5-3.5c-1-0.9-2.5-1.3-4.4-1.3c-2,0-3.5,0.4-4.5,1.1c-1,0.7-1.5,1.7-1.5,2.9s0.4,2.1,1.2,2.7
				c0.8,0.6,2.6,1.3,5.2,2c2.8,0.7,4.9,1.6,6.2,2.5c1.3,0.9,1.9,2.3,1.9,4.1c0,1.9-0.8,3.4-2.3,4.4c-1.6,1-3.7,1.6-6.5,1.6
				c-2.5,0-4.6-0.5-6.3-1.6c-1.7-1.1-2.5-2.8-2.5-5.2h2.3c0,1.7,0.6,3,1.9,3.7c1.3,0.8,2.8,1.1,4.6,1.1c2.1,0,3.7-0.4,4.8-1.1
				C377.4,199.8,378,198.8,378,197.6z"/>
			<path id="XMLID_407_" class="st5" d="M404.1,180.7v14.9c0,2.5-0.9,4.5-2.6,5.9c-1.7,1.4-4,2.1-6.7,2.1c-2.8,0-5.1-0.7-6.8-2.1
				c-1.7-1.4-2.6-3.3-2.6-5.9v-14.9h2.3v14.9c0,1.9,0.6,3.4,1.9,4.4c1.3,1.1,3,1.6,5.1,1.6c2.1,0,3.8-0.5,5.1-1.6
				c1.3-1.1,1.9-2.5,1.9-4.4v-14.9H404.1z"/>
			<path id="XMLID_405_" class="st5" d="M412.7,201.3h11.2v1.9h-13.5v-22.6h2.3V201.3z"/>
			<path id="XMLID_403_" class="st5" d="M443.8,182.7h-7.6v20.6h-2.3v-20.6h-7.3v-2h17.3V182.7z"/>
			<path id="XMLID_400_" class="st5" d="M466.4,194c0,3-0.8,5.3-2.5,7c-1.7,1.7-3.9,2.6-6.8,2.6c-2.9,0-5.1-0.9-6.8-2.6
				c-1.7-1.7-2.5-4.1-2.5-7v-4c0-3,0.8-5.3,2.5-7c1.7-1.7,3.9-2.6,6.8-2.6c2.8,0,5.1,0.9,6.8,2.6c1.7,1.7,2.5,4.1,2.5,7V194z
				 M464.1,190c0-2.5-0.6-4.4-1.8-5.7c-1.2-1.3-3-1.9-5.2-1.9c-2.2,0-3.9,0.6-5.1,1.9c-1.2,1.3-1.8,3.2-1.8,5.7v4
				c0,2.5,0.6,4.4,1.8,5.7c1.2,1.3,2.9,1.9,5.2,1.9c2.2,0,3.9-0.6,5.2-1.9c1.2-1.3,1.8-3.2,1.8-5.7V190z"/>
			<path id="XMLID_397_" class="st5" d="M474.7,193.4v9.9h-2.3v-22.6h8.6c2.6,0,4.5,0.5,5.8,1.6c1.3,1.1,2,2.7,2,4.8
				c0,1.3-0.3,2.4-0.9,3.2c-0.6,0.9-1.5,1.5-2.8,2v0.1c1.3,0.4,2.3,1,2.8,1.9c0.6,0.9,0.9,2,0.9,3.4v2.2c0,0.7,0,1.3,0.1,1.8
				s0.2,1,0.5,1.3v0.4h-2.4c-0.2-0.3-0.4-0.8-0.4-1.5c-0.1-0.7-0.1-1.3-0.1-2v-2.1c0-1.4-0.4-2.4-1.2-3.2c-0.8-0.7-2-1.1-3.6-1.1
				H474.7z M474.7,191.4h6.3c2,0,3.4-0.4,4.2-1.1c0.9-0.7,1.3-1.8,1.3-3.3s-0.4-2.6-1.3-3.3c-0.9-0.8-2.3-1.1-4.2-1.1h-6.3V191.4z"
				/>
			<path id="XMLID_395_" class="st5" d="M497.3,203.3H495v-22.6h2.3V203.3z"/>
			<path id="XMLID_392_" class="st5" d="M517.5,197.4h-11.1l-2.3,5.9h-2.4l9.2-22.6h2.3l9.1,22.6h-2.4L517.5,197.4z M507.1,195.4
				h9.5l-4.8-12L507.1,195.4z"/>
			<path id="XMLID_388_" class="st5" d="M540.6,187.9c-1.1-1.3-1.9-2.5-2.3-3.5c-0.5-1-0.7-2.1-0.7-3.3c0-2.1,0.6-3.7,1.7-4.8
				c1.1-1.1,2.7-1.6,4.8-1.6c1.9,0,3.4,0.5,4.5,1.5c1.1,1,1.6,2.4,1.6,4c0,1.2-0.3,2.2-0.9,3c-0.6,0.8-1.4,1.7-2.5,2.5l-3.1,2.4
				l8,9.3c0.6-0.9,1.1-2,1.5-3.1c0.3-1.1,0.5-2.3,0.5-3.6h2.1c0,1.7-0.2,3.2-0.7,4.6c-0.5,1.4-1.2,2.6-2.1,3.8l3.7,4.3h-2.8
				l-2.4-2.7c-1.1,1-2.3,1.8-3.6,2.3c-1.3,0.5-2.7,0.8-4.2,0.8c-2.8,0-4.9-0.7-6.4-2c-1.5-1.4-2.3-3.2-2.3-5.5c0-1.6,0.5-3,1.4-4.2
				c0.9-1.2,2.3-2.5,4.1-3.8L540.6,187.9z M543.6,201.7c1.2,0,2.4-0.2,3.5-0.7c1.1-0.5,2.1-1.1,3.1-2l-8-9.3
				c-0.1-0.1-0.1-0.1-0.2-0.2c0,0-0.1-0.1-0.1-0.2l-0.9,0.7c-1.5,1.2-2.5,2.3-3,3.3c-0.5,1-0.7,1.9-0.7,2.7c0,1.6,0.5,3,1.6,4
				C539.8,201.2,541.4,201.7,543.6,201.7z M539.8,181c0,0.9,0.2,1.8,0.6,2.7c0.4,0.9,1,1.9,1.9,2.9l3.4-2.6c0.8-0.6,1.3-1.2,1.6-1.8
				c0.3-0.6,0.5-1.3,0.5-2c0-1-0.3-1.9-1-2.5c-0.7-0.7-1.6-1-2.8-1c-1.3,0-2.4,0.4-3.1,1.2C540.1,178.7,539.8,179.7,539.8,181z"/>
			<path id="XMLID_385_" class="st5" d="M572.7,194.8v8.4h-2.3v-22.6h8.6c2.5,0,4.4,0.6,5.8,1.9c1.4,1.3,2.1,3,2.1,5.1
				s-0.7,3.8-2.1,5.1c-1.4,1.3-3.3,1.9-5.8,1.9H572.7z M572.7,192.9h6.2c1.9,0,3.3-0.5,4.2-1.4c0.9-1,1.4-2.2,1.4-3.6
				c0-1.5-0.5-2.7-1.4-3.7c-0.9-1-2.3-1.5-4.2-1.5h-6.2V192.9z"/>
			<path id="XMLID_382_" class="st5" d="M594.4,193.4v9.9h-2.3v-22.6h8.6c2.6,0,4.5,0.5,5.8,1.6c1.3,1.1,2,2.7,2,4.8
				c0,1.3-0.3,2.4-0.9,3.2c-0.6,0.9-1.5,1.5-2.8,2v0.1c1.3,0.4,2.3,1,2.8,1.9c0.6,0.9,0.9,2,0.9,3.4v2.2c0,0.7,0,1.3,0.1,1.8
				s0.2,1,0.5,1.3v0.4h-2.4c-0.2-0.3-0.4-0.8-0.4-1.5c-0.1-0.7-0.1-1.3-0.1-2v-2.1c0-1.4-0.4-2.4-1.2-3.2c-0.8-0.7-2-1.1-3.6-1.1
				H594.4z M594.4,191.4h6.3c2,0,3.4-0.4,4.2-1.1c0.9-0.7,1.3-1.8,1.3-3.3s-0.4-2.6-1.3-3.3c-0.9-0.8-2.3-1.1-4.2-1.1h-6.3V191.4z"
				/>
			<path id="XMLID_379_" class="st5" d="M632.6,194c0,3-0.8,5.3-2.5,7c-1.7,1.7-3.9,2.6-6.8,2.6c-2.9,0-5.1-0.9-6.8-2.6
				c-1.7-1.7-2.5-4.1-2.5-7v-4c0-3,0.8-5.3,2.5-7c1.7-1.7,3.9-2.6,6.8-2.6c2.8,0,5.1,0.9,6.8,2.6c1.7,1.7,2.5,4.1,2.5,7V194z
				 M630.3,190c0-2.5-0.6-4.4-1.8-5.7c-1.2-1.3-3-1.9-5.2-1.9c-2.2,0-3.9,0.6-5.1,1.9c-1.2,1.3-1.8,3.2-1.8,5.7v4
				c0,2.5,0.6,4.4,1.8,5.7c1.2,1.3,2.9,1.9,5.2,1.9s3.9-0.6,5.2-1.9c1.2-1.3,1.8-3.2,1.8-5.7V190z"/>
			<path id="XMLID_377_" class="st5" d="M649.3,180.7h2.3v15.9c0,2.2-0.7,3.9-2,5.1c-1.3,1.2-3.1,1.9-5.3,1.9
				c-2.4,0-4.3-0.6-5.6-1.7c-1.3-1.1-2-2.8-2-5h2.3c0,1.6,0.4,2.8,1.3,3.6c0.9,0.8,2.2,1.1,4,1.1c1.4,0,2.6-0.5,3.6-1.4
				s1.4-2.1,1.4-3.7V180.7z"/>
			<path id="XMLID_375_" class="st5" d="M671.8,192.5h-11.3v8.8h13v1.9h-15.3v-22.6h15.3v2h-13v7.9h11.3V192.5z"/>
			<path id="XMLID_373_" class="st5" d="M694.2,182.7h-7.6v20.6h-2.3v-20.6h-7.3v-2h17.3V182.7z"/>
			<path id="XMLID_370_" class="st5" d="M716.9,194c0,3-0.8,5.3-2.5,7c-1.7,1.7-3.9,2.6-6.8,2.6c-2.9,0-5.1-0.9-6.8-2.6
				c-1.7-1.7-2.5-4.1-2.5-7v-4c0-3,0.8-5.3,2.5-7c1.7-1.7,3.9-2.6,6.8-2.6c2.8,0,5.1,0.9,6.8,2.6c1.7,1.7,2.5,4.1,2.5,7V194z
				 M714.6,190c0-2.5-0.6-4.4-1.8-5.7c-1.2-1.3-3-1.9-5.2-1.9c-2.2,0-3.9,0.6-5.1,1.9c-1.2,1.3-1.8,3.2-1.8,5.7v4
				c0,2.5,0.6,4.4,1.8,5.7c1.2,1.3,2.9,1.9,5.2,1.9s3.9-0.6,5.2-1.9c1.2-1.3,1.8-3.2,1.8-5.7V190z"/>
			<path id="XMLID_368_" class="st5" d="M736.8,197.6c0-1.1-0.4-2-1.3-2.7c-0.9-0.7-2.6-1.3-5.1-2c-2.8-0.7-4.9-1.6-6.1-2.5
				c-1.3-0.9-1.9-2.3-1.9-4.1c0-1.8,0.7-3.3,2.2-4.4c1.5-1.1,3.5-1.6,6.1-1.6c2.6,0,4.7,0.6,6.1,1.8c1.4,1.2,2.2,2.9,2.2,5.1h-2.3
				c0-1.5-0.5-2.7-1.5-3.5c-1-0.9-2.5-1.3-4.4-1.3c-2,0-3.5,0.4-4.5,1.1c-1,0.7-1.5,1.7-1.5,2.9s0.4,2.1,1.2,2.7
				c0.8,0.6,2.6,1.3,5.2,2c2.8,0.7,4.9,1.6,6.2,2.5c1.3,0.9,1.9,2.3,1.9,4.1c0,1.9-0.8,3.4-2.3,4.4c-1.6,1-3.7,1.6-6.5,1.6
				c-2.5,0-4.6-0.5-6.3-1.6c-1.7-1.1-2.5-2.8-2.5-5.2h2.3c0,1.7,0.6,3,1.9,3.7c1.3,0.8,2.8,1.1,4.6,1.1c2.1,0,3.7-0.4,4.8-1.1
				C736.3,199.8,736.8,198.8,736.8,197.6z"/>
		</g>
	</g>
	<g id="Texto_1_" class="st1">
		<g id="XMLID_156_">
			<defs>
				<path id="XMLID_157_" d="M210,103.5v58.8h-3.5v-58.8h-15.8V100h35v3.5H210z M246.3,140.6c-0.3,0-0.7,0-1.1,0h-10.6v21.6h-3.5
					V100h16.3c4.7,0.6,8.8,2.6,12.1,6c4,4,6,8.8,6,14.4c0,5.6-2,10.4-6,14.4c-2.8,2.7-5.9,4.6-9.5,5.4l14.4,22.1h-4.3L246.3,140.6z
					 M234.7,103.5v33.6h10.6c4.6,0,8.6-1.6,11.8-4.9c3.3-3.3,4.9-7.2,4.9-11.9s-1.6-8.6-4.9-11.9c-3.3-3.3-7.2-4.9-11.8-4.9H234.7z
					 M275.4,100v62.3h-3.5V100H275.4z M301,127.8c-4.4-1.5-7.9-3.5-10.5-6.1c-2.6-2.6-3.9-5.7-3.9-9.3c0-3.6,1.3-6.7,3.9-9.2
					c2.6-2.6,5.7-3.9,9.3-3.9c3.6,0,6.7,1.3,9.3,3.9c1.4,1.4,2.4,2.9,3,4.6L309,109c-0.5-1.3-1.2-2.4-2.3-3.5
					c-1.9-1.9-4.2-2.8-6.8-2.8c-2.7,0-5,0.9-6.8,2.8c-1.9,1.9-2.8,4.2-2.8,6.9c0,2.7,0.9,5,2.8,6.8c1.8,1.7,4.2,3.3,7.3,4.8
					c5,1.6,9.2,4.1,12.6,7.5c3.6,3.6,5.4,7.9,5.4,13c0,5.1-1.8,9.5-5.4,13.1c-3.6,3.6-8,5.4-13,5.4c-5.1,0-9.4-1.8-13-5.4
					c-2.9-2.9-4.6-6.2-5.2-10l3.3-1.2c0.4,3.4,1.8,6.3,4.3,8.8c2.9,2.9,6.5,4.4,10.6,4.4c4.2,0,7.7-1.5,10.6-4.4
					c2.9-2.9,4.4-6.5,4.4-10.6c0-4.1-1.5-7.7-4.4-10.6C307.9,131.4,304.7,129.3,301,127.8z M327.2,132.1v30.2h-3.5V100h3.5v26.5
					l19.9-26.5h4.5l-18.7,25.1l24.1,37.2h-4.3l-22.1-34.4L327.2,132.1z M395.1,100v3.5h-27.6v25.9h27.6v3.5h-27.6v25.9h27.6v3.5H364
					V100H395.1z M403.4,162.3V100h3.5v58.8H431v3.5H403.4z M475,100l22.6,62.3h-8.6l-8-22h-16.5l-8,22H448l22.6-62.3H475z
					 M478.2,132.2l-5.3-14.6l-5.3,14.6H478.2z M512.4,100l20.2,34.9l20.1-34.9h7.4v62.3H552v-45l-19.4,33.6l-19.5-33.6v45H505V100
					H512.4z M583.8,100c3.6,0,6.7,1.3,9.3,3.8c2.6,2.6,3.9,5.6,3.9,9.2c0,3.7-1.9,6-5.6,6.9c2.7,0.4,5.8,2.3,9.2,5.8
					c3.4,3.5,5.2,8.2,5.2,14.3c0,6.1-2.1,11.4-6.4,15.8c-4,4.2-8.1,6.3-12.1,6.3v0.1h-16V100H583.8z M579.3,108.1v9.8h5.3
					c1.2-0.1,2.2-0.6,3.1-1.4c0.9-0.9,1.4-2,1.4-3.5c0-1.5-0.5-2.7-1.5-3.6c-1-0.9-2.2-1.4-3.7-1.4H579.3z M579.3,126.2v28h7.9V154
					c1.7-0.1,3.7-1.4,6.2-4c2.7-2.8,4.1-6.1,4.1-10c0-3.8-1.4-7.1-4.1-9.8c-2.7-2.7-6-4.1-9.8-4.1H579.3z M621.5,100v62.3h-8.1V100
					H621.5z M665.1,100v8.1h-25.5v19h25.5v8.1h-25.5v19h25.5v8.1h-33.5V100H665.1z M673.4,100h7.4l25.7,44.4V100h8.1v62.3h-7l-26-45
					v45h-8.1V100z M742.6,108.1v54.2h-8.1v-54.2h-14.5V100h37.1v8.1H742.6z M782.7,100l22.6,62.3h-8.6l-8-22h-16.5l-8,22h-8.6
					l22.6-62.3H782.7z M785.9,132.2l-5.3-14.6l-5.3,14.6H785.9z M810.8,162.3V100h8.1v54.2h22.3v8.1H810.8z"/>
			</defs>
			<use xlink:href="#XMLID_157_"  style="overflow:visible;fill:#FFFFFF;"/>
			<clipPath id="XMLID_91_">
				<use xlink:href="#XMLID_157_"  style="overflow:visible;"/>
			</clipPath>
		</g>
		<g id="XMLID_2_" class="st0">
			<path id="XMLID_154_" class="st9" d="M309.7,195.9c-0.1,2.6-0.9,4.5-2.4,5.7c-1.5,1.3-3.6,1.9-6.3,1.9c-2.7,0-4.9-0.9-6.5-2.6
				c-1.6-1.7-2.5-4.1-2.5-7v-4c0-2.9,0.8-5.2,2.5-7c1.6-1.7,3.8-2.6,6.5-2.6c2.7,0,4.8,0.6,6.3,1.9c1.5,1.3,2.3,3.2,2.4,5.7h-2.3
				c-0.1-1.9-0.7-3.4-1.7-4.3c-1-0.9-2.6-1.4-4.6-1.4c-2,0-3.6,0.7-4.8,2.1c-1.2,1.4-1.8,3.2-1.8,5.5v4c0,2.3,0.6,4.1,1.8,5.5
				c1.2,1.4,2.8,2.1,4.8,2.1c2.1,0,3.6-0.5,4.6-1.4s1.6-2.4,1.7-4.3H309.7z"/>
			<path id="XMLID_151_" class="st9" d="M333.1,194c0,3-0.8,5.3-2.5,7c-1.7,1.7-3.9,2.6-6.8,2.6c-2.9,0-5.1-0.9-6.8-2.6
				c-1.7-1.7-2.5-4.1-2.5-7v-4c0-3,0.8-5.3,2.5-7c1.7-1.7,3.9-2.6,6.8-2.6s5.1,0.9,6.8,2.6c1.7,1.7,2.5,4.1,2.5,7V194z M330.8,190
				c0-2.5-0.6-4.4-1.8-5.7c-1.2-1.3-3-1.9-5.2-1.9c-2.2,0-3.9,0.6-5.1,1.9c-1.2,1.3-1.8,3.2-1.8,5.7v4c0,2.5,0.6,4.4,1.8,5.7
				c1.2,1.3,2.9,1.9,5.2,1.9c2.2,0,3.9-0.6,5.2-1.9c1.2-1.3,1.8-3.2,1.8-5.7V190z"/>
			<path id="XMLID_149_" class="st9" d="M357.3,203.3H355l-13.7-18.9l-0.1,0v18.9H339v-22.6h2.3l13.7,18.9l0.1,0v-18.9h2.3V203.3z"
				/>
			<path id="XMLID_147_" class="st9" d="M378,197.6c0-1.1-0.4-2-1.3-2.7c-0.9-0.7-2.6-1.3-5.1-2c-2.8-0.7-4.9-1.6-6.1-2.5
				c-1.3-0.9-1.9-2.3-1.9-4.1c0-1.8,0.7-3.3,2.2-4.4c1.5-1.1,3.5-1.6,6.1-1.6c2.6,0,4.7,0.6,6.1,1.8c1.4,1.2,2.2,2.9,2.2,5.1h-2.3
				c0-1.5-0.5-2.7-1.5-3.5c-1-0.9-2.5-1.3-4.4-1.3c-2,0-3.5,0.4-4.5,1.1c-1,0.7-1.5,1.7-1.5,2.9s0.4,2.1,1.2,2.7
				c0.8,0.6,2.6,1.3,5.2,2c2.8,0.7,4.9,1.6,6.2,2.5c1.3,0.9,1.9,2.3,1.9,4.1c0,1.9-0.8,3.4-2.3,4.4c-1.6,1-3.7,1.6-6.5,1.6
				c-2.5,0-4.6-0.5-6.3-1.6c-1.7-1.1-2.5-2.8-2.5-5.2h2.3c0,1.7,0.6,3,1.9,3.7c1.3,0.8,2.8,1.1,4.6,1.1c2.1,0,3.7-0.4,4.8-1.1
				C377.4,199.8,378,198.8,378,197.6z"/>
			<path id="XMLID_145_" class="st9" d="M404.1,180.7v14.9c0,2.5-0.9,4.5-2.6,5.9c-1.7,1.4-4,2.1-6.7,2.1c-2.8,0-5.1-0.7-6.8-2.1
				c-1.7-1.4-2.6-3.3-2.6-5.9v-14.9h2.3v14.9c0,1.9,0.6,3.4,1.9,4.4c1.3,1.1,3,1.6,5.1,1.6c2.1,0,3.8-0.5,5.1-1.6
				c1.3-1.1,1.9-2.5,1.9-4.4v-14.9H404.1z"/>
			<path id="XMLID_143_" class="st9" d="M412.7,201.3h11.2v1.9h-13.5v-22.6h2.3V201.3z"/>
			<path id="XMLID_141_" class="st9" d="M443.8,182.7h-7.6v20.6h-2.3v-20.6h-7.3v-2h17.3V182.7z"/>
			<path id="XMLID_66_" class="st9" d="M466.4,194c0,3-0.8,5.3-2.5,7c-1.7,1.7-3.9,2.6-6.8,2.6c-2.9,0-5.1-0.9-6.8-2.6
				c-1.7-1.7-2.5-4.1-2.5-7v-4c0-3,0.8-5.3,2.5-7c1.7-1.7,3.9-2.6,6.8-2.6c2.8,0,5.1,0.9,6.8,2.6c1.7,1.7,2.5,4.1,2.5,7V194z
				 M464.1,190c0-2.5-0.6-4.4-1.8-5.7c-1.2-1.3-3-1.9-5.2-1.9c-2.2,0-3.9,0.6-5.1,1.9c-1.2,1.3-1.8,3.2-1.8,5.7v4
				c0,2.5,0.6,4.4,1.8,5.7c1.2,1.3,2.9,1.9,5.2,1.9c2.2,0,3.9-0.6,5.2-1.9c1.2-1.3,1.8-3.2,1.8-5.7V190z"/>
			<path id="XMLID_57_" class="st9" d="M474.7,193.4v9.9h-2.3v-22.6h8.6c2.6,0,4.5,0.5,5.8,1.6c1.3,1.1,2,2.7,2,4.8
				c0,1.3-0.3,2.4-0.9,3.2c-0.6,0.9-1.5,1.5-2.8,2v0.1c1.3,0.4,2.3,1,2.8,1.9c0.6,0.9,0.9,2,0.9,3.4v2.2c0,0.7,0,1.3,0.1,1.8
				s0.2,1,0.5,1.3v0.4h-2.4c-0.2-0.3-0.4-0.8-0.4-1.5c-0.1-0.7-0.1-1.3-0.1-2v-2.1c0-1.4-0.4-2.4-1.2-3.2c-0.8-0.7-2-1.1-3.6-1.1
				H474.7z M474.7,191.4h6.3c2,0,3.4-0.4,4.2-1.1c0.9-0.7,1.3-1.8,1.3-3.3s-0.4-2.6-1.3-3.3c-0.9-0.8-2.3-1.1-4.2-1.1h-6.3V191.4z"
				/>
			<path id="XMLID_55_" class="st9" d="M497.3,203.3H495v-22.6h2.3V203.3z"/>
			<path id="XMLID_52_" class="st9" d="M517.5,197.4h-11.1l-2.3,5.9h-2.4l9.2-22.6h2.3l9.1,22.6h-2.4L517.5,197.4z M507.1,195.4h9.5
				l-4.8-12L507.1,195.4z"/>
			<path id="XMLID_48_" class="st9" d="M540.6,187.9c-1.1-1.3-1.9-2.5-2.3-3.5c-0.5-1-0.7-2.1-0.7-3.3c0-2.1,0.6-3.7,1.7-4.8
				c1.1-1.1,2.7-1.6,4.8-1.6c1.9,0,3.4,0.5,4.5,1.5c1.1,1,1.6,2.4,1.6,4c0,1.2-0.3,2.2-0.9,3c-0.6,0.8-1.4,1.7-2.5,2.5l-3.1,2.4
				l8,9.3c0.6-0.9,1.1-2,1.5-3.1c0.3-1.1,0.5-2.3,0.5-3.6h2.1c0,1.7-0.2,3.2-0.7,4.6c-0.5,1.4-1.2,2.6-2.1,3.8l3.7,4.3h-2.8
				l-2.4-2.7c-1.1,1-2.3,1.8-3.6,2.3c-1.3,0.5-2.7,0.8-4.2,0.8c-2.8,0-4.9-0.7-6.4-2c-1.5-1.4-2.3-3.2-2.3-5.5c0-1.6,0.5-3,1.4-4.2
				c0.9-1.2,2.3-2.5,4.1-3.8L540.6,187.9z M543.6,201.7c1.2,0,2.4-0.2,3.5-0.7c1.1-0.5,2.1-1.1,3.1-2l-8-9.3
				c-0.1-0.1-0.1-0.1-0.2-0.2c0,0-0.1-0.1-0.1-0.2l-0.9,0.7c-1.5,1.2-2.5,2.3-3,3.3c-0.5,1-0.7,1.9-0.7,2.7c0,1.6,0.5,3,1.6,4
				C539.8,201.2,541.4,201.7,543.6,201.7z M539.8,181c0,0.9,0.2,1.8,0.6,2.7c0.4,0.9,1,1.9,1.9,2.9l3.4-2.6c0.8-0.6,1.3-1.2,1.6-1.8
				c0.3-0.6,0.5-1.3,0.5-2c0-1-0.3-1.9-1-2.5c-0.7-0.7-1.6-1-2.8-1c-1.3,0-2.4,0.4-3.1,1.2C540.1,178.7,539.8,179.7,539.8,181z"/>
			<path id="XMLID_45_" class="st9" d="M572.7,194.8v8.4h-2.3v-22.6h8.6c2.5,0,4.4,0.6,5.8,1.9c1.4,1.3,2.1,3,2.1,5.1
				s-0.7,3.8-2.1,5.1c-1.4,1.3-3.3,1.9-5.8,1.9H572.7z M572.7,192.9h6.2c1.9,0,3.3-0.5,4.2-1.4c0.9-1,1.4-2.2,1.4-3.6
				c0-1.5-0.5-2.7-1.4-3.7c-0.9-1-2.3-1.5-4.2-1.5h-6.2V192.9z"/>
			<path id="XMLID_41_" class="st9" d="M594.4,193.4v9.9h-2.3v-22.6h8.6c2.6,0,4.5,0.5,5.8,1.6c1.3,1.1,2,2.7,2,4.8
				c0,1.3-0.3,2.4-0.9,3.2c-0.6,0.9-1.5,1.5-2.8,2v0.1c1.3,0.4,2.3,1,2.8,1.9c0.6,0.9,0.9,2,0.9,3.4v2.2c0,0.7,0,1.3,0.1,1.8
				s0.2,1,0.5,1.3v0.4h-2.4c-0.2-0.3-0.4-0.8-0.4-1.5c-0.1-0.7-0.1-1.3-0.1-2v-2.1c0-1.4-0.4-2.4-1.2-3.2c-0.8-0.7-2-1.1-3.6-1.1
				H594.4z M594.4,191.4h6.3c2,0,3.4-0.4,4.2-1.1c0.9-0.7,1.3-1.8,1.3-3.3s-0.4-2.6-1.3-3.3c-0.9-0.8-2.3-1.1-4.2-1.1h-6.3V191.4z"
				/>
			<path id="XMLID_37_" class="st9" d="M632.6,194c0,3-0.8,5.3-2.5,7c-1.7,1.7-3.9,2.6-6.8,2.6c-2.9,0-5.1-0.9-6.8-2.6
				c-1.7-1.7-2.5-4.1-2.5-7v-4c0-3,0.8-5.3,2.5-7c1.7-1.7,3.9-2.6,6.8-2.6c2.8,0,5.1,0.9,6.8,2.6c1.7,1.7,2.5,4.1,2.5,7V194z
				 M630.3,190c0-2.5-0.6-4.4-1.8-5.7c-1.2-1.3-3-1.9-5.2-1.9c-2.2,0-3.9,0.6-5.1,1.9c-1.2,1.3-1.8,3.2-1.8,5.7v4
				c0,2.5,0.6,4.4,1.8,5.7c1.2,1.3,2.9,1.9,5.2,1.9s3.9-0.6,5.2-1.9c1.2-1.3,1.8-3.2,1.8-5.7V190z"/>
			<path id="XMLID_35_" class="st9" d="M649.3,180.7h2.3v15.9c0,2.2-0.7,3.9-2,5.1c-1.3,1.2-3.1,1.9-5.3,1.9c-2.4,0-4.3-0.6-5.6-1.7
				c-1.3-1.1-2-2.8-2-5h2.3c0,1.6,0.4,2.8,1.3,3.6c0.9,0.8,2.2,1.1,4,1.1c1.4,0,2.6-0.5,3.6-1.4s1.4-2.1,1.4-3.7V180.7z"/>
			<path id="XMLID_33_" class="st9" d="M671.8,192.5h-11.3v8.8h13v1.9h-15.3v-22.6h15.3v2h-13v7.9h11.3V192.5z"/>
			<path id="XMLID_31_" class="st9" d="M694.2,182.7h-7.6v20.6h-2.3v-20.6h-7.3v-2h17.3V182.7z"/>
			<path id="XMLID_28_" class="st9" d="M716.9,194c0,3-0.8,5.3-2.5,7c-1.7,1.7-3.9,2.6-6.8,2.6c-2.9,0-5.1-0.9-6.8-2.6
				c-1.7-1.7-2.5-4.1-2.5-7v-4c0-3,0.8-5.3,2.5-7c1.7-1.7,3.9-2.6,6.8-2.6c2.8,0,5.1,0.9,6.8,2.6c1.7,1.7,2.5,4.1,2.5,7V194z
				 M714.6,190c0-2.5-0.6-4.4-1.8-5.7c-1.2-1.3-3-1.9-5.2-1.9c-2.2,0-3.9,0.6-5.1,1.9c-1.2,1.3-1.8,3.2-1.8,5.7v4
				c0,2.5,0.6,4.4,1.8,5.7c1.2,1.3,2.9,1.9,5.2,1.9s3.9-0.6,5.2-1.9c1.2-1.3,1.8-3.2,1.8-5.7V190z"/>
			<path id="XMLID_26_" class="st9" d="M736.8,197.6c0-1.1-0.4-2-1.3-2.7c-0.9-0.7-2.6-1.3-5.1-2c-2.8-0.7-4.9-1.6-6.1-2.5
				c-1.3-0.9-1.9-2.3-1.9-4.1c0-1.8,0.7-3.3,2.2-4.4c1.5-1.1,3.5-1.6,6.1-1.6c2.6,0,4.7,0.6,6.1,1.8c1.4,1.2,2.2,2.9,2.2,5.1h-2.3
				c0-1.5-0.5-2.7-1.5-3.5c-1-0.9-2.5-1.3-4.4-1.3c-2,0-3.5,0.4-4.5,1.1c-1,0.7-1.5,1.7-1.5,2.9s0.4,2.1,1.2,2.7
				c0.8,0.6,2.6,1.3,5.2,2c2.8,0.7,4.9,1.6,6.2,2.5c1.3,0.9,1.9,2.3,1.9,4.1c0,1.9-0.8,3.4-2.3,4.4c-1.6,1-3.7,1.6-6.5,1.6
				c-2.5,0-4.6-0.5-6.3-1.6c-1.7-1.1-2.5-2.8-2.5-5.2h2.3c0,1.7,0.6,3,1.9,3.7c1.3,0.8,2.8,1.1,4.6,1.1c2.1,0,3.7-0.4,4.8-1.1
				C736.3,199.8,736.8,198.8,736.8,197.6z"/>
		</g>
	</g>
	<g id="img_2_">
		<linearGradient id="XMLID_92_" gradientUnits="userSpaceOnUse" x1="39.847" y1="154.1999" x2="155.5009" y2="154.1999">
			<stop  offset="0" style="stop-color:#99CC66"/>
			<stop  offset="1" style="stop-color:#336633"/>
		</linearGradient>
		<path id="XMLID_10_" class="st10" d="M61.1,197.4c0.8-0.1,1.6-0.3,2.3-0.3c16.1,0.2,23.1-15.6,17.8-28.3
			c-3.4-8.1-9.1-13.7-18.4-13.8c-8.2-0.2-15.2,6-16.6,14.2c-0.1,0.4-0.2,0.7-0.4,1.2c-1.8-3.9,1.2-11.4,4.1-14.4
			c9.6-10.1,25.4-9.8,34.7,1.4c3.7,4.5,6.4,9.9,9.1,15.2c3.5,7,6,14.5,11.4,20.4c5.2,5.7,11.5,8.8,19.1,9.1c1,0,2,0.2,3.2,0.4
			C117.4,217,69.9,213.4,61.1,197.4z M40.7,155.3c0.8-1.1,1.4-2.1,2.2-2.9c2.7-2.8,5.2-6,8.4-8.1c7.8-5.3,16.6-4.8,25.5-4
			c7.7,0.7,15.4,2.2,23.2,0.3c14-3.4,22.3-16.6,18.8-30.2c-1.4-5.5-6.2-10.7-10.7-11.2c0.7,0.7,1.2,1.1,1.7,1.5
			c7.2,5.9,7.9,18,1.3,24.7c-7,7.1-19.3,8.3-27.6,2.8c-8.7-5.9-11.4-14.9-7.3-24.7c0.6-1.4,1.2-2.7,2-4.3
			C58.4,101.4,35.1,136.5,40.7,155.3z M136.9,190.5c-10.7,4.3-22.6-3.7-22.8-15.4c-0.1-7.4,2.7-13.6,8.1-18.5
			c9.6-8.5,22.6-6.5,29.5,4.3c0.5,0.8,1.1,1.5,1.7,2.4c8.5-16.9-11.6-59.5-28.6-60.9c0,0.2-0.1,0.4,0,0.6c0.2,0.6,0.4,1.1,0.7,1.6
			c4.9,9.6,4.8,19.3-0.7,28.5c-4.2,7.1-9.1,13.7-13.4,20.6c-4.4,7-6.1,14.6-4.2,22.8c2.5,11.2,12,18.7,22.7,17.8
			c3.2-0.2,6.1-1.4,8.3-4.2C137.8,190.4,137.3,190.4,136.9,190.5z M62.2,182.4c-4,1.7-7.6,0.5-10.8-2.3c-1.6-1.4-3.2-2.9-4.6-4.1
			c2.6,10.2,15.9,15.3,24.5,9.1c1.5-1.1,3-2.7,3.6-4.5c2.9-8-4.9-18.9-13.3-18.9c-3.5,0-5.6,2.1-6.9,5c-1.3,3-1,5.8,1,8.4
			c1.4,1.8,3.2,2.1,5.2,1c3.2-1.7,3.8-4.5,2.8-8.5C69.7,173.3,68.7,179.6,62.2,182.4z M92,115c-2.4-2.6-2.5-5.9-1.4-9
			c1.7-4.8,5.6-6.6,10.2-7.4c1-0.2,2.1-0.3,3.1-0.4c-0.7-0.9-1.3-1.2-1.9-1.3c-9.3-1.1-18.3,6.8-18.6,16.4c-0.2,4.4,2.2,8.3,6.3,9.8
			c5,1.9,10,1.5,14.6-1.3c5.8-3.6,6.2-11.4,0.8-15.2c-2.4-1.7-6.3-1.4-7.8,0.5c-1.6,2-1.1,5.9,1.1,7.9c0.8,0.7,2,1.1,3.8,2
			C98,117.4,94.6,117.7,92,115z M142.7,186.6c6.9-7.8,4.3-21.8-5.1-26.2c-1.9-0.9-4.5-1.1-6.4-0.6c-7,2.1-11.7,12.7-8.9,19.6
			c2,5,8.2,6.8,12.5,3.5c2.6-2,3.5-5.7,1.8-7.8c-2-2.6-5.6-2.8-8.3-0.4c-0.3,0.3-0.7,0.5-1.2,1c1.1-6.8,7.1-9.8,12.4-6.4
			c2.9,1.9,4.6,4.7,4.4,8.3c-0.2,3.2-1.1,6.3-1.6,9.3C142.3,186.9,142.5,186.8,142.7,186.6z"/>
		<g id="XMLID_3_" class="st1">
			<path id="XMLID_7_" class="st4" d="M165.1,135.2c1.1,4.4,1.7,8.9,2,13.4c0.5-9.1-0.9-18.4-4.1-27c-11-29.3-41.1-47.7-72.2-44.4
				c-35.9,3.3-64.4,35.2-62.3,71.4c2-39.5,36.2-70.4,75.8-66.5C133.5,84.6,158.4,106.8,165.1,135.2L165.1,135.2z"/>
			<path id="XMLID_6_" class="st5" d="M171,149.5c0.2,32.6-21.2,62.6-51.5,73.4c-7,2.6-14.3,4.1-21.7,4.6c7.5,0.4,15.1-0.6,22.3-2.6
				c35.9-10,59.7-46,55.8-83.3c-3.7-39.9-38.5-71.1-78.2-68.1C138.3,75,171.2,108.1,171,149.5L171,149.5z"/>
			<path id="XMLID_8_" class="st4" d="M179.5,152.1c-2.1,43.6-37.8,79-81.7,78.9c-43.9,0.1-79.6-35.3-81.7-78.9
				c-2,30.2,15.4,60.1,41.9,74.4c22.4,12.5,50.7,13.5,74,2.8C161.6,216.1,181.6,184.5,179.5,152.1L179.5,152.1z"/>
			<path id="XMLID_9_" class="st5" d="M12.2,141.6c3.4-38.6,31.6-71,68.4-80c5.6-1.4,11.4-2.3,17.2-2.6C91.9,58.7,86,59,80.2,59.9
				C52.1,64.2,26.8,83.7,14.5,110c-11.7,24.3-12,53.9-1,78.5c14.4,33.1,48.7,55.3,84.2,53C46.9,238.9,7.2,193.9,12.2,141.6
				L12.2,141.6z"/>
		</g>
	</g>
	<g id="img_3_" class="st1">
		<path id="XMLID_18_" class="st6" d="M61.1,197.4c0.8-0.1,1.6-0.3,2.3-0.3c16.1,0.2,23.1-15.6,17.8-28.3
			c-3.4-8.1-9.1-13.7-18.4-13.8c-8.2-0.2-15.2,6-16.6,14.2c-0.1,0.4-0.2,0.7-0.4,1.2c-1.8-3.9,1.2-11.4,4.1-14.4
			c9.6-10.1,25.4-9.8,34.7,1.4c3.7,4.5,6.4,9.9,9.1,15.2c3.5,7,6,14.5,11.4,20.4c5.2,5.7,11.5,8.8,19.1,9.1c1,0,2,0.2,3.2,0.4
			C117.4,217,69.9,213.4,61.1,197.4z M40.7,155.3c0.8-1.1,1.4-2.1,2.2-2.9c2.7-2.8,5.2-6,8.4-8.1c7.8-5.3,16.6-4.8,25.5-4
			c7.7,0.7,15.4,2.2,23.2,0.3c14-3.4,22.3-16.6,18.8-30.2c-1.4-5.5-6.2-10.7-10.7-11.2c0.7,0.7,1.2,1.1,1.7,1.5
			c7.2,5.9,7.9,18,1.3,24.7c-7,7.1-19.3,8.3-27.6,2.8c-8.7-5.9-11.4-14.9-7.3-24.7c0.6-1.4,1.2-2.7,2-4.3
			C58.4,101.4,35.1,136.5,40.7,155.3z M136.9,190.5c-10.7,4.3-22.6-3.7-22.8-15.4c-0.1-7.4,2.7-13.6,8.1-18.5
			c9.6-8.5,22.6-6.5,29.5,4.3c0.5,0.8,1.1,1.5,1.7,2.4c8.5-16.9-11.6-59.5-28.6-60.9c0,0.2-0.1,0.4,0,0.6c0.2,0.6,0.4,1.1,0.7,1.6
			c4.9,9.6,4.8,19.3-0.7,28.5c-4.2,7.1-9.1,13.7-13.4,20.6c-4.4,7-6.1,14.6-4.2,22.8c2.5,11.2,12,18.7,22.7,17.8
			c3.2-0.2,6.1-1.4,8.3-4.2C137.8,190.4,137.3,190.4,136.9,190.5z M62.2,182.4c-4,1.7-7.6,0.5-10.8-2.3c-1.6-1.4-3.2-2.9-4.6-4.1
			c2.6,10.2,15.9,15.3,24.5,9.1c1.5-1.1,3-2.7,3.6-4.5c2.9-8-4.9-18.9-13.3-18.9c-3.5,0-5.6,2.1-6.9,5c-1.3,3-1,5.8,1,8.4
			c1.4,1.8,3.2,2.1,5.2,1c3.2-1.7,3.8-4.5,2.8-8.5C69.7,173.3,68.7,179.6,62.2,182.4z M92,115c-2.4-2.6-2.5-5.9-1.4-9
			c1.7-4.8,5.6-6.6,10.2-7.4c1-0.2,2.1-0.3,3.1-0.4c-0.7-0.9-1.3-1.2-1.9-1.3c-9.3-1.1-18.3,6.8-18.6,16.4c-0.2,4.4,2.2,8.3,6.3,9.8
			c5,1.9,10,1.5,14.6-1.3c5.8-3.6,6.2-11.4,0.8-15.2c-2.4-1.7-6.3-1.4-7.8,0.5c-1.6,2-1.1,5.9,1.1,7.9c0.8,0.7,2,1.1,3.8,2
			C98,117.4,94.6,117.7,92,115z M142.7,186.6c6.9-7.8,4.3-21.8-5.1-26.2c-1.9-0.9-4.5-1.1-6.4-0.6c-7,2.1-11.7,12.7-8.9,19.6
			c2,5,8.2,6.8,12.5,3.5c2.6-2,3.5-5.7,1.8-7.8c-2-2.6-5.6-2.8-8.3-0.4c-0.3,0.3-0.7,0.5-1.2,1c1.1-6.8,7.1-9.8,12.4-6.4
			c2.9,1.9,4.6,4.7,4.4,8.3c-0.2,3.2-1.1,6.3-1.6,9.3C142.3,186.9,142.5,186.8,142.7,186.6z"/>
		<g id="XMLID_11_">
			<path id="XMLID_17_" class="st7" d="M165.1,135.2c1.1,4.4,1.7,8.9,2,13.4c0.5-9.1-0.9-18.4-4.1-27c-11-29.3-41.1-47.7-72.2-44.4
				c-35.9,3.3-64.4,35.2-62.3,71.4c2-39.5,36.2-70.4,75.8-66.5C133.5,84.6,158.4,106.8,165.1,135.2L165.1,135.2z"/>
			<path id="XMLID_16_" class="st7" d="M171,149.5c0.2,32.6-21.2,62.6-51.5,73.4c-7,2.6-14.3,4.1-21.7,4.6
				c7.5,0.4,15.1-0.6,22.3-2.6c35.9-10,59.7-46,55.8-83.3c-3.7-39.9-38.5-71.1-78.2-68.1C138.3,75,171.2,108.1,171,149.5L171,149.5z
				"/>
			<path id="XMLID_25_" class="st7" d="M179.5,152.1c-2.1,43.6-37.8,79-81.7,78.9c-43.9,0.1-79.6-35.3-81.7-78.9
				c-2,30.2,15.4,60.1,41.9,74.4c22.4,12.5,50.7,13.5,74,2.8C161.6,216.1,181.6,184.5,179.5,152.1L179.5,152.1z"/>
			<path id="XMLID_64_" class="st7" d="M12.2,141.6c3.4-38.6,31.6-71,68.4-80c5.6-1.4,11.4-2.3,17.2-2.6C91.9,58.7,86,59,80.2,59.9
				C52.1,64.2,26.8,83.7,14.5,110c-11.7,24.3-12,53.9-1,78.5c14.4,33.1,48.7,55.3,84.2,53C46.9,238.9,7.2,193.9,12.2,141.6
				L12.2,141.6z"/>
		</g>
	</g>
</g>
</svg>
